<svg id="svg" version="1.1" width="400" height="279.11111111111114" viewBox="0 0 400 279.11111111111114" xmlns="http://www.w3.org/2000/svg" xmlns:xlink="http://www.w3.org/1999/xlink" ><g id="svgg"><path id="path0" d="M239.031 0.773 C 238.717 1.198,238.362 1.852,238.244 2.225 C 238.125 2.599,237.856 3.077,237.646 3.287 C 237.436 3.497,237.264 3.911,237.264 4.207 C 237.264 4.503,237.141 4.745,236.991 4.745 C 236.840 4.745,236.630 5.089,236.525 5.510 C 236.419 5.931,236.166 6.442,235.961 6.647 C 235.757 6.851,235.590 7.260,235.590 7.557 C 235.590 7.853,235.483 8.095,235.352 8.095 C 235.124 8.095,234.301 9.579,231.328 15.352 C 229.692 18.529,229.530 18.839,229.170 19.470 C 229.017 19.738,228.507 20.741,228.036 21.697 C 227.566 22.654,227.063 23.509,226.919 23.598 C 226.775 23.687,226.657 23.972,226.657 24.232 C 226.657 25.109,222.160 25.649,213.678 25.792 C 209.532 25.861,205.764 26.047,205.304 26.205 C 204.843 26.363,201.296 26.607,197.421 26.748 C 193.320 26.896,190.229 27.125,190.024 27.295 C 189.817 27.466,187.583 27.626,184.620 27.681 C 181.341 27.741,179.431 27.887,179.177 28.097 C 178.922 28.307,176.975 28.453,173.594 28.515 C 170.227 28.578,168.266 28.724,168.012 28.933 C 167.776 29.127,166.159 29.293,163.936 29.351 C 161.476 29.416,160.135 29.565,159.902 29.798 C 159.667 30.033,158.550 30.151,156.469 30.159 C 154.773 30.165,152.819 30.302,152.128 30.462 C 151.438 30.622,149.452 30.858,147.716 30.987 C 145.981 31.115,144.411 31.344,144.227 31.495 C 144.044 31.645,142.449 31.856,140.684 31.964 C 138.918 32.071,137.220 32.319,136.909 32.514 C 136.588 32.715,135.115 32.917,133.494 32.982 C 131.776 33.051,130.509 33.232,130.304 33.436 C 130.104 33.637,129.178 33.775,128.039 33.775 C 126.980 33.775,125.718 33.953,125.234 34.169 C 124.750 34.386,123.253 34.624,121.908 34.697 C 120.562 34.770,119.306 34.954,119.116 35.104 C 118.927 35.254,117.923 35.442,116.885 35.521 C 115.847 35.601,114.842 35.795,114.652 35.953 C 114.461 36.111,113.364 36.327,112.212 36.434 C 111.061 36.541,109.840 36.803,109.500 37.016 C 109.160 37.229,108.281 37.405,107.546 37.406 C 106.812 37.407,105.851 37.595,105.411 37.824 C 104.971 38.054,104.029 38.242,103.318 38.243 C 102.606 38.244,101.703 38.412,101.312 38.616 C 100.920 38.821,99.925 39.068,99.100 39.166 C 98.275 39.263,97.471 39.472,97.314 39.630 C 96.927 40.016,94.538 39.995,94.144 39.601 C 93.971 39.428,92.910 39.229,91.786 39.159 C 90.661 39.088,89.346 38.853,88.862 38.636 C 88.305 38.386,87.020 38.241,85.359 38.241 C 83.632 38.241,82.616 38.122,82.387 37.893 C 81.879 37.385,55.734 37.385,55.227 37.893 C 55.018 38.101,54.137 38.241,53.033 38.241 C 51.843 38.241,50.996 38.387,50.647 38.651 C 50.349 38.877,49.665 39.066,49.128 39.072 C 48.590 39.078,47.791 39.270,47.351 39.499 C 46.911 39.729,46.346 39.917,46.095 39.918 C 45.844 39.919,45.302 40.096,44.890 40.310 C 44.478 40.525,43.764 40.784,43.304 40.885 C 42.844 40.986,42.317 41.249,42.134 41.469 C 41.952 41.690,41.575 41.870,41.298 41.870 C 41.020 41.870,40.605 42.059,40.375 42.289 C 40.145 42.519,39.816 42.708,39.646 42.708 C 39.356 42.708,37.715 43.753,37.404 44.135 C 37.327 44.230,37.013 44.386,36.706 44.481 C 36.399 44.577,35.775 45.001,35.319 45.424 C 34.864 45.847,34.092 46.463,33.604 46.794 C 32.319 47.666,31.159 48.721,28.919 51.050 C 27.829 52.184,26.544 53.503,26.064 53.981 C 25.584 54.459,24.893 55.291,24.529 55.831 C 24.164 56.371,23.385 57.387,22.797 58.089 C 21.756 59.334,21.328 59.982,20.603 61.410 C 20.408 61.793,20.174 62.170,20.083 62.247 C 19.771 62.510,17.201 67.710,16.428 69.644 C 16.058 70.569,15.325 72.678,15.167 73.273 C 15.085 73.580,14.842 74.227,14.627 74.711 C 14.412 75.194,14.236 75.840,14.236 76.144 C 14.236 76.449,14.048 77.058,13.819 77.498 C 13.590 77.937,13.401 78.840,13.400 79.504 C 13.399 80.167,13.227 80.881,13.018 81.090 C 12.809 81.299,12.550 82.135,12.442 82.947 C 12.334 83.760,12.131 84.563,11.990 84.733 C 11.849 84.902,11.652 86.161,11.551 87.531 C 11.451 88.900,11.235 90.189,11.072 90.396 C 10.909 90.602,10.678 92.360,10.559 94.303 C 10.440 96.247,10.222 98.779,10.074 99.930 C 9.730 102.600,9.726 109.769,10.066 112.491 C 10.210 113.643,10.431 116.178,10.558 118.125 C 10.684 120.073,10.918 121.831,11.078 122.033 C 11.237 122.235,11.445 123.452,11.540 124.737 C 11.634 126.022,11.828 127.216,11.971 127.389 C 12.113 127.562,12.322 128.332,12.434 129.100 C 12.546 129.867,12.809 130.743,13.018 131.046 C 13.227 131.349,13.398 132.015,13.398 132.525 C 13.398 133.036,13.587 133.819,13.818 134.265 C 14.528 135.638,14.500 137.682,13.769 137.873 C 13.436 137.961,12.806 138.346,12.370 138.730 C 11.934 139.114,11.021 139.805,10.342 140.265 C 8.700 141.379,5.494 144.649,4.228 146.500 C 2.061 149.670,0.837 151.898,0.837 152.675 C 0.837 152.951,0.649 153.333,0.419 153.524 C -0.208 154.044,-0.208 170.589,0.419 171.110 C 0.649 171.301,0.837 171.674,0.837 171.938 C 0.837 172.203,1.089 172.709,1.396 173.064 C 1.703 173.418,1.954 173.878,1.954 174.086 C 1.954 174.513,7.559 180.321,7.971 180.321 C 8.117 180.321,8.855 180.761,9.610 181.298 C 10.366 181.835,11.151 182.275,11.354 182.275 C 11.557 182.275,11.724 182.398,11.724 182.549 C 11.724 182.699,12.056 182.906,12.462 183.008 C 13.914 183.372,14.236 184.011,14.238 186.532 C 14.239 188.029,14.385 189.114,14.656 189.634 C 14.886 190.074,15.074 191.016,15.075 191.728 C 15.076 192.439,15.244 193.342,15.448 193.733 C 15.653 194.125,15.900 195.120,15.997 195.945 C 16.095 196.770,16.304 197.574,16.462 197.732 C 16.619 197.889,16.752 198.338,16.758 198.730 C 16.763 199.121,17.005 199.944,17.295 200.558 C 17.878 201.790,17.622 202.425,16.384 202.818 C 16.070 202.918,15.679 203.113,15.513 203.253 C 15.348 203.393,14.710 203.942,14.096 204.475 C 13.482 205.007,12.875 205.443,12.746 205.443 C 12.293 205.443,8.861 208.952,7.899 210.398 C 7.363 211.204,6.831 211.863,6.718 211.863 C 6.604 211.863,6.169 212.523,5.750 213.329 C 5.332 214.135,4.889 214.983,4.767 215.213 C 3.816 217.008,3.629 217.466,3.629 217.997 C 3.629 218.330,3.458 218.773,3.248 218.983 C 3.039 219.192,2.780 220.028,2.672 220.840 C 2.564 221.652,2.334 222.489,2.160 222.698 C 1.616 223.353,1.534 229.493,2.047 231.064 C 2.290 231.805,2.572 232.936,2.675 233.577 C 2.777 234.218,3.034 234.885,3.245 235.060 C 3.456 235.236,3.629 235.662,3.629 236.008 C 3.629 236.355,3.817 236.794,4.047 236.985 C 4.278 237.176,4.466 237.495,4.466 237.692 C 4.466 238.100,6.130 240.271,7.562 241.731 C 10.042 244.259,12.137 245.874,14.515 247.090 C 14.899 247.286,15.348 247.573,15.512 247.729 C 15.677 247.884,16.305 248.249,16.908 248.541 C 17.511 248.832,18.193 249.178,18.423 249.310 C 18.653 249.442,19.030 249.621,19.260 249.708 C 19.491 249.795,19.867 249.983,20.098 250.127 C 20.328 250.270,20.705 250.466,20.935 250.563 C 22.861 251.371,24.006 251.946,24.006 252.105 C 24.006 252.208,24.407 252.381,24.897 252.489 C 25.387 252.597,25.961 252.858,26.173 253.070 C 26.385 253.281,26.769 253.458,27.026 253.461 C 27.304 253.466,27.708 253.948,28.020 254.648 C 29.641 258.284,35.245 265.146,38.215 267.132 C 38.559 267.362,39.303 267.959,39.867 268.458 C 40.431 268.956,41.044 269.365,41.228 269.365 C 41.412 269.365,41.881 269.660,42.270 270.021 C 43.084 270.775,45.640 272.156,46.223 272.156 C 46.439 272.156,46.615 272.280,46.615 272.430 C 46.615 272.581,46.961 272.788,47.383 272.890 C 47.805 272.993,48.399 273.247,48.701 273.454 C 49.004 273.661,49.585 273.831,49.993 273.831 C 50.401 273.831,50.891 274.020,51.082 274.250 C 51.273 274.480,51.732 274.669,52.103 274.669 C 52.473 274.669,53.054 274.845,53.394 275.060 C 53.734 275.276,54.546 275.538,55.197 275.643 C 55.849 275.748,56.449 275.941,56.530 276.072 C 56.611 276.204,57.271 276.391,57.997 276.488 C 58.722 276.585,59.790 276.844,60.369 277.062 C 60.947 277.281,61.906 277.460,62.500 277.460 C 63.093 277.460,63.939 277.648,64.378 277.877 C 64.919 278.159,66.038 278.297,67.830 278.304 C 69.716 278.312,70.638 278.433,71.023 278.725 C 71.848 279.349,127.586 279.338,128.783 278.714 C 129.311 278.439,130.400 278.297,131.993 278.296 C 133.585 278.294,134.675 278.152,135.203 277.877 C 135.643 277.648,136.585 277.459,137.296 277.458 C 138.008 277.457,138.911 277.289,139.302 277.085 C 139.694 276.881,140.681 276.635,141.495 276.538 C 142.310 276.442,143.120 276.250,143.295 276.112 C 143.481 275.966,169.421 275.783,205.055 275.675 C 245.769 275.552,266.815 275.392,267.442 275.202 C 268.015 275.029,275.727 274.830,287.006 274.699 C 299.531 274.553,305.743 274.384,305.987 274.182 C 306.231 273.981,310.821 273.852,319.944 273.787 C 330.342 273.714,333.620 273.610,333.887 273.343 C 334.148 273.082,336.026 272.994,341.326 272.994 C 346.939 272.994,348.598 272.909,349.295 272.588 C 349.973 272.275,351.779 272.163,357.180 272.099 C 361.791 272.045,364.320 271.910,364.577 271.706 C 364.793 271.535,365.659 271.326,366.504 271.241 C 367.348 271.157,368.416 270.889,368.876 270.647 C 369.337 270.404,369.981 270.205,370.308 270.204 C 370.634 270.203,371.058 270.014,371.249 269.784 C 371.440 269.553,371.822 269.365,372.098 269.365 C 372.530 269.365,374.165 268.579,377.337 266.846 C 379.242 265.805,384.648 260.291,384.648 259.388 C 384.648 259.242,384.899 258.833,385.206 258.479 C 385.513 258.125,385.764 257.618,385.764 257.354 C 385.764 257.089,385.937 256.729,386.148 256.554 C 386.359 256.378,386.616 255.710,386.719 255.068 C 386.821 254.426,387.057 253.718,387.242 253.495 C 387.696 252.947,387.715 243.660,387.263 243.099 C 387.090 242.884,386.859 241.703,386.751 240.475 C 386.643 239.246,386.377 237.963,386.159 237.623 C 385.480 236.560,385.657 234.969,386.559 234.038 C 386.996 233.586,387.677 232.715,388.072 232.100 C 388.467 231.486,389.114 230.619,389.510 230.173 C 389.906 229.727,390.230 229.242,390.230 229.097 C 390.230 228.951,390.590 228.373,391.030 227.814 C 391.470 227.255,391.915 226.526,392.018 226.194 C 392.121 225.863,392.389 225.439,392.614 225.253 C 392.838 225.067,393.022 224.678,393.022 224.390 C 393.022 224.102,393.139 223.866,393.282 223.866 C 393.425 223.866,393.622 223.583,393.720 223.238 C 393.903 222.589,394.501 221.208,395.158 219.915 C 395.365 219.508,395.534 218.906,395.534 218.579 C 395.534 218.252,395.708 217.706,395.921 217.366 C 396.134 217.026,396.397 216.246,396.504 215.632 C 396.612 215.017,396.828 214.360,396.985 214.170 C 397.142 213.981,397.337 212.752,397.419 211.441 C 397.501 210.129,397.675 208.989,397.807 208.908 C 397.938 208.826,398.046 208.304,398.046 207.748 C 398.046 207.137,398.433 205.987,399.023 204.848 L 400.000 202.960 400.000 195.565 C 400.000 190.862,399.897 188.106,399.717 187.995 C 399.561 187.898,399.242 187.420,399.009 186.931 C 398.000 184.822,397.875 184.656,394.774 181.327 C 393.972 180.467,393.187 179.763,393.030 179.763 C 392.872 179.763,392.742 179.649,392.742 179.511 C 392.742 179.372,392.083 178.819,391.277 178.282 C 390.471 177.746,389.510 177.042,389.141 176.720 C 388.772 176.398,388.350 176.134,388.204 176.134 C 388.058 176.134,387.480 175.784,386.921 175.356 C 386.361 174.928,385.179 174.221,384.293 173.785 C 383.407 173.348,382.614 172.882,382.532 172.748 C 382.449 172.615,382.138 172.505,381.840 172.505 C 380.967 172.505,381.195 171.998,382.973 169.993 C 383.894 168.954,384.648 167.995,384.649 167.862 C 384.650 167.729,384.999 167.244,385.426 166.783 C 386.424 165.706,388.555 162.428,388.555 161.970 C 388.555 161.777,388.657 161.619,388.782 161.619 C 389.059 161.619,390.876 157.996,392.582 154.040 C 392.824 153.480,393.026 152.726,393.031 152.365 C 393.035 152.005,393.224 151.466,393.449 151.168 C 393.675 150.870,393.859 150.162,393.859 149.595 C 393.859 149.028,394.047 148.204,394.276 147.764 C 394.549 147.241,394.695 146.142,394.699 144.592 C 394.705 142.598,394.812 142.041,395.370 141.103 C 396.189 139.727,397.280 137.520,397.785 136.218 C 398.376 134.694,398.478 127.700,397.922 126.850 C 397.683 126.486,397.486 125.901,397.484 125.551 C 397.481 125.200,397.298 124.599,397.077 124.215 C 396.856 123.831,396.535 123.206,396.366 122.825 C 396.196 122.444,395.971 122.067,395.865 121.988 C 395.760 121.908,395.442 121.386,395.159 120.828 C 394.496 119.523,388.164 113.050,387.549 113.050 C 387.385 113.050,385.776 111.920,385.263 111.445 C 385.056 111.253,384.707 111.096,384.488 111.096 C 384.269 111.096,384.089 110.991,384.089 110.862 C 384.089 110.734,383.430 110.286,382.624 109.868 C 380.960 109.004,380.389 108.700,379.693 108.309 C 379.424 108.158,378.514 107.705,377.669 107.302 C 376.825 106.898,375.946 106.455,375.715 106.318 C 375.485 106.180,375.108 105.996,374.878 105.908 C 374.648 105.820,374.126 105.570,373.718 105.351 C 373.311 105.133,372.711 104.955,372.385 104.955 C 372.017 104.955,371.697 104.701,371.539 104.284 C 371.398 103.915,371.150 103.531,370.987 103.430 C 370.824 103.329,370.691 102.824,370.691 102.306 C 370.691 101.789,370.502 101.177,370.272 100.947 C 370.042 100.717,369.853 100.167,369.853 99.724 C 369.853 99.282,369.669 98.677,369.444 98.379 C 369.218 98.081,369.029 97.585,369.023 97.278 C 369.017 96.971,368.844 96.398,368.639 96.004 C 368.433 95.610,368.178 94.919,368.073 94.468 C 367.891 93.694,367.482 92.699,366.609 90.906 C 366.398 90.471,366.225 89.827,366.225 89.474 C 366.225 89.122,366.036 88.677,365.806 88.486 C 365.576 88.295,365.387 87.890,365.387 87.587 C 365.387 87.044,364.904 85.760,364.114 84.206 C 363.893 83.772,363.712 83.220,363.712 82.981 C 363.712 82.741,363.448 81.966,363.124 81.259 C 362.040 78.887,361.806 78.302,361.637 77.530 C 361.544 77.107,361.346 76.762,361.195 76.762 C 361.044 76.762,360.920 76.479,360.919 76.134 C 360.918 75.789,360.730 75.146,360.501 74.706 C 360.271 74.267,360.084 73.685,360.084 73.415 C 360.084 73.144,359.895 72.766,359.665 72.575 C 359.435 72.384,359.246 71.985,359.246 71.688 C 359.246 71.391,358.987 70.559,358.671 69.838 C 357.690 67.602,357.238 66.603,356.840 65.783 C 356.628 65.349,356.455 64.767,356.455 64.492 C 356.455 64.216,356.267 63.834,356.036 63.643 C 355.806 63.452,355.618 63.021,355.618 62.685 C 355.618 62.349,355.433 61.831,355.208 61.533 C 354.982 61.235,354.794 60.821,354.789 60.614 C 354.781 60.257,354.537 59.641,353.392 57.083 C 353.117 56.469,352.812 55.621,352.714 55.199 C 352.616 54.777,352.413 54.431,352.263 54.431 C 352.112 54.431,351.989 54.184,351.989 53.882 C 351.989 53.349,351.503 52.041,350.705 50.431 C 350.490 49.996,350.314 49.450,350.314 49.217 C 350.314 48.984,350.115 48.335,349.872 47.774 C 349.629 47.214,349.252 46.343,349.035 45.838 C 348.817 45.334,348.639 44.783,348.639 44.613 C 348.639 44.321,347.946 42.691,347.077 40.940 C 346.862 40.506,346.685 39.924,346.685 39.649 C 346.685 39.373,346.497 38.991,346.267 38.800 C 346.036 38.609,345.848 38.169,345.848 37.823 C 345.848 37.477,345.659 37.037,345.429 36.846 C 345.199 36.655,345.010 36.278,345.010 36.008 C 345.010 35.739,344.830 35.369,344.610 35.186 C 344.389 35.003,344.130 34.496,344.034 34.058 C 343.938 33.621,343.679 33.194,343.458 33.110 C 343.237 33.025,343.057 32.758,343.057 32.517 C 343.057 32.103,342.223 30.757,341.452 29.925 C 341.260 29.718,341.103 29.439,341.103 29.305 C 341.103 28.888,335.535 23.490,334.895 23.287 C 334.562 23.181,334.118 22.923,333.908 22.713 C 333.698 22.503,333.280 22.331,332.979 22.331 C 332.678 22.331,332.363 22.150,332.278 21.929 C 332.193 21.708,331.726 21.441,331.240 21.335 C 330.754 21.229,330.108 20.971,329.805 20.760 C 329.502 20.549,328.839 20.377,328.330 20.377 C 327.821 20.377,327.103 20.179,326.734 19.937 C 325.894 19.387,302.134 19.437,301.438 19.991 C 301.185 20.192,298.494 20.359,293.839 20.461 C 289.875 20.549,286.484 20.737,286.303 20.880 C 286.122 21.022,283.309 21.212,280.052 21.301 C 276.795 21.390,273.906 21.582,273.632 21.729 C 273.358 21.875,270.370 22.082,266.992 22.190 C 263.615 22.297,260.349 22.517,259.735 22.680 C 259.121 22.842,256.269 23.049,253.398 23.141 C 249.790 23.256,248.070 23.415,247.829 23.657 C 247.607 23.880,246.646 24.006,245.167 24.006 L 242.852 24.006 243.757 22.601 C 244.254 21.829,244.855 20.855,245.092 20.438 C 245.704 19.361,248.881 14.482,249.395 13.830 C 249.632 13.530,249.826 13.172,249.826 13.033 C 249.826 12.894,250.202 12.305,250.663 11.724 C 251.124 11.142,251.500 10.478,251.500 10.248 C 251.500 10.018,251.668 9.765,251.874 9.686 C 252.377 9.493,254.013 6.254,254.013 5.451 C 254.013 4.349,252.413 1.989,251.640 1.949 C 251.486 1.941,250.858 1.692,250.244 1.396 C 249.630 1.099,248.876 0.848,248.569 0.838 C 248.262 0.828,247.767 0.635,247.469 0.410 C 247.057 0.098,246.053 -0.000,243.265 -0.000 L 239.603 -0.000 239.031 0.773 M245.075 6.032 C 246.806 6.725,247.205 5.912,238.484 19.470 C 236.929 21.888,234.426 25.813,232.923 28.193 C 230.010 32.803,228.631 34.726,228.403 34.497 C 228.226 34.321,231.355 28.169,236.010 19.539 C 236.963 17.774,238.471 14.948,239.361 13.259 C 242.626 7.067,242.911 6.551,243.337 6.071 C 243.860 5.482,243.710 5.486,245.075 6.032 M325.655 27.309 C 332.869 29.244,336.631 33.772,341.350 46.197 C 343.565 52.028,344.409 54.205,346.869 60.433 C 348.324 64.117,349.645 67.446,349.805 67.830 C 350.555 69.635,355.903 83.032,356.713 85.136 C 357.215 86.441,357.945 88.325,358.334 89.323 C 361.492 97.415,366.209 111.876,367.713 118.074 C 371.291 132.816,370.442 135.547,362.062 136.236 C 360.283 136.383,358.555 136.564,358.222 136.639 C 356.664 136.990,343.104 137.624,331.752 137.877 C 324.843 138.031,313.852 138.285,307.327 138.440 C 300.803 138.596,289.874 138.854,283.043 139.013 C 269.394 139.331,259.026 139.667,248.988 140.114 C 245.380 140.275,238.032 140.542,232.659 140.707 C 227.285 140.872,222.010 141.053,220.935 141.110 C 219.860 141.167,214.481 141.345,208.982 141.507 C 203.482 141.668,198.521 141.863,197.956 141.939 C 197.391 142.015,191.465 142.215,184.787 142.381 C 178.109 142.548,171.703 142.736,170.551 142.799 C 169.400 142.862,164.438 143.032,159.525 143.176 C 154.613 143.320,146.008 143.585,140.405 143.765 L 130.216 144.092 127.232 145.178 C 111.299 150.975,78.781 152.189,61.689 147.625 C 39.119 141.597,26.761 126.730,25.641 104.257 C 23.962 70.544,27.396 59.044,41.852 49.957 C 51.815 43.694,71.381 42.528,93.231 46.894 C 95.593 47.366,96.066 47.383,97.558 47.048 C 98.479 46.841,100.677 46.349,102.442 45.954 C 104.208 45.559,106.469 45.051,107.467 44.826 C 108.465 44.601,110.412 44.210,111.793 43.957 C 113.175 43.704,114.871 43.380,115.562 43.236 C 116.826 42.972,119.714 42.474,124.355 41.720 C 131.168 40.612,146.013 38.625,153.385 37.834 C 155.534 37.604,158.988 37.231,161.061 37.007 C 163.133 36.783,165.645 36.531,166.643 36.447 C 167.641 36.364,170.468 36.108,172.924 35.879 C 177.324 35.468,183.029 35.022,194.278 34.209 C 207.817 33.231,209.105 33.371,204.370 35.309 C 181.510 44.667,169.046 73.205,181.021 88.767 C 192.631 103.856,212.682 102.554,225.077 85.905 C 236.871 70.064,239.622 52.335,231.839 42.325 C 230.294 40.337,230.284 40.743,231.938 38.080 C 232.693 36.864,233.833 35.014,234.472 33.970 C 235.904 31.627,235.755 31.681,241.870 31.284 C 244.634 31.105,248.276 30.839,249.965 30.693 C 251.654 30.546,255.234 30.301,257.920 30.148 C 260.607 29.995,264.375 29.746,266.294 29.595 C 268.214 29.444,273.050 29.123,277.041 28.883 C 281.033 28.643,286.057 28.321,288.207 28.167 C 290.356 28.013,294.313 27.772,296.999 27.631 C 299.686 27.490,303.894 27.239,306.350 27.075 C 313.346 26.606,314.157 26.581,319.051 26.679 C 322.479 26.748,324.168 26.909,325.655 27.309 M223.241 33.008 C 224.056 34.018,222.593 35.340,221.155 34.893 C 217.456 33.743,216.917 33.212,219.142 32.910 C 221.359 32.609,222.951 32.647,223.241 33.008 M209.298 39.344 C 209.097 39.613,208.530 40.366,208.038 41.016 C 201.358 49.843,214.586 62.480,224.983 57.204 C 227.607 55.872,229.037 54.139,230.490 50.523 C 230.766 49.839,230.777 49.847,231.099 50.942 C 233.203 58.114,230.387 68.925,223.555 79.898 C 213.372 96.254,197.806 99.471,186.280 87.602 C 175.525 76.528,181.282 56.716,199.091 43.511 C 203.190 40.472,210.758 37.382,209.298 39.344 M218.454 41.711 C 218.538 41.930,218.011 43.310,217.282 44.777 C 216.093 47.173,215.992 47.521,216.294 48.185 C 216.701 49.077,219.667 51.876,220.892 52.524 L 221.773 52.990 220.939 53.310 C 215.915 55.240,209.391 48.136,212.125 43.712 C 213.245 41.900,217.955 40.410,218.454 41.711 M224.983 50.470 C 224.983 50.877,224.195 51.783,224.006 51.594 C 223.771 51.358,224.355 50.244,224.713 50.244 C 224.861 50.244,224.983 50.346,224.983 50.470 M19.633 99.274 C 19.807 107.843,20.105 111.168,21.084 115.446 C 25.921 136.575,43.016 150.962,68.109 155.020 C 85.810 157.883,117.627 155.579,129.569 150.570 C 131.248 149.865,132.394 149.800,153.524 149.203 C 156.364 149.123,160.007 148.990,161.619 148.908 C 163.231 148.826,170.516 148.573,177.809 148.345 C 195.027 147.808,226.479 146.742,251.361 145.851 C 276.686 144.945,292.085 144.533,319.330 144.033 C 336.141 143.724,348.411 143.317,353.524 142.898 C 355.366 142.747,358.444 142.502,360.363 142.354 C 365.722 141.939,366.593 141.772,369.522 140.601 C 371.647 139.752,371.983 140.534,371.100 144.278 C 369.618 150.567,362.842 155.616,354.222 156.853 C 351.234 157.282,324.107 158.576,307.188 159.096 C 302.275 159.247,294.236 159.501,289.323 159.660 C 266.491 160.401,207.214 161.023,158.620 161.033 C 143.937 161.037,132.944 161.146,132.661 161.292 C 131.470 161.907,125.767 163.109,121.144 163.720 C 102.506 166.184,68.809 165.827,56.618 163.037 C 55.953 162.884,54.215 162.495,52.756 162.172 C 31.979 157.564,22.094 145.221,18.224 119.051 C 17.195 112.094,17.606 94.175,18.889 90.026 C 19.290 88.730,19.464 90.890,19.633 99.274 M376.884 115.324 C 393.341 124.250,395.376 133.888,382.790 143.289 C 378.130 146.769,376.607 147.207,377.140 144.912 C 377.745 142.311,377.395 137.826,376.004 130.356 C 375.562 127.976,374.936 124.522,374.615 122.680 C 374.293 120.837,373.743 118.169,373.392 116.749 C 372.476 113.045,372.594 112.996,376.884 115.324 M19.759 145.665 C 19.956 145.791,20.381 146.385,20.703 146.987 C 27.295 159.303,39.341 166.472,58.339 169.386 C 68.708 170.976,73.521 171.250,90.719 171.226 C 112.097 171.197,122.211 170.302,133.845 167.409 C 135.994 166.875,192.045 167.051,192.045 167.592 C 192.045 168.315,180.905 172.624,174.599 174.341 C 155.403 179.567,136.724 181.837,113.050 181.819 C 96.027 181.806,82.454 180.710,68.388 178.210 C 62.684 177.197,52.485 174.793,49.546 173.770 C 48.932 173.556,47.174 172.982,45.639 172.494 C 32.573 168.339,22.009 161.668,18.696 155.478 C 16.870 152.066,17.704 144.362,19.759 145.665 M386.149 149.004 C 386.344 149.319,384.907 153.317,383.843 155.418 C 375.747 171.409,360.543 180.327,334.962 184.089 C 329.291 184.923,312.326 186.644,300.488 187.586 C 298.646 187.733,296.762 187.916,296.301 187.993 C 295.841 188.069,293.203 188.320,290.440 188.549 C 287.676 188.778,283.468 189.150,281.089 189.376 C 278.709 189.602,275.255 189.916,273.412 190.075 C 271.570 190.234,268.116 190.551,265.736 190.778 C 263.357 191.006,259.023 191.388,256.106 191.627 C 253.189 191.867,249.609 192.188,248.151 192.340 C 246.692 192.493,243.301 192.800,240.614 193.023 C 237.927 193.246,233.719 193.620,231.263 193.855 C 228.807 194.090,224.724 194.465,222.191 194.688 C 219.658 194.912,215.450 195.290,212.840 195.528 C 210.230 195.766,205.960 196.148,203.350 196.376 C 200.740 196.605,197.411 196.915,195.953 197.066 C 194.494 197.216,191.731 197.474,189.812 197.637 C 187.893 197.801,184.313 198.120,181.856 198.347 C 179.400 198.574,175.255 198.943,172.645 199.166 C 170.035 199.389,166.793 199.711,165.440 199.881 C 161.126 200.425,160.543 199.889,163.924 198.489 C 167.378 197.059,170.659 195.374,174.309 193.156 C 179.149 190.215,178.658 190.256,190.370 191.814 C 193.334 192.209,204.382 191.933,207.955 191.375 C 222.577 189.092,235.391 182.977,246.299 173.077 C 251.848 168.042,255.948 167.022,262.715 168.994 C 266.926 170.221,268.989 171.316,278.219 177.228 C 292.617 186.448,303.518 187.128,327.425 180.294 C 339.528 176.835,347.708 171.963,353.015 165.053 L 354.641 162.937 357.711 162.185 C 362.001 161.136,366.600 159.149,368.480 157.532 C 368.722 157.324,370.654 156.401,372.773 155.483 C 377.155 153.583,381.690 151.240,383.819 149.776 C 385.263 148.783,385.885 148.576,386.149 149.004 M11.554 150.616 C 11.647 150.859,11.724 151.590,11.724 152.240 C 11.724 157.317,16.556 163.994,23.606 168.660 C 26.077 170.295,31.329 173.343,31.676 173.343 C 31.749 173.343,32.723 173.768,33.839 174.287 C 34.955 174.807,37.507 175.878,39.509 176.668 L 43.148 178.104 44.873 180.538 C 52.785 191.705,64.381 195.842,80.809 193.361 C 87.241 192.389,91.139 192.045,95.667 192.049 C 102.793 192.055,106.125 192.760,119.330 197.053 C 122.708 198.151,126.916 199.426,128.681 199.887 C 130.447 200.348,132.378 200.854,132.973 201.011 C 138.349 202.431,114.444 202.707,100.349 201.388 C 76.703 199.175,55.619 193.991,34.191 185.121 C 27.462 182.335,16.603 177.025,13.678 175.089 C 7.135 170.760,4.782 164.973,6.732 158.008 C 8.008 153.450,10.926 148.978,11.554 150.616 M345.701 163.841 C 346.370 164.923,340.556 168.910,334.403 171.586 C 328.936 173.965,319.389 176.662,310.258 178.408 C 303.918 179.621,294.391 178.777,289.141 176.538 C 283.616 174.182,273.944 167.739,275.974 167.767 C 276.254 167.771,280.817 167.892,286.113 168.036 C 296.098 168.309,310.974 168.044,317.237 167.482 C 322.159 167.040,330.644 166.115,332.729 165.793 C 337.856 164.999,343.011 164.104,343.754 163.877 C 344.886 163.531,345.503 163.520,345.701 163.841 M243.545 167.072 C 243.545 167.968,238.510 172.228,233.384 175.668 C 226.310 180.416,216.646 184.002,206.420 185.673 C 202.914 186.246,190.658 186.148,187.299 185.520 C 179.997 184.154,176.500 184.678,171.700 187.855 C 161.694 194.477,149.540 197.349,137.976 195.824 C 133.402 195.221,131.139 194.629,120.167 191.164 C 117.251 190.242,114.466 189.367,113.979 189.217 C 112.903 188.887,112.234 188.205,112.809 188.024 C 113.018 187.958,116.706 187.829,121.005 187.738 C 125.304 187.646,130.265 187.447,132.031 187.295 C 133.796 187.144,136.811 186.896,138.730 186.744 C 145.869 186.178,159.809 184.091,165.806 182.691 C 182.887 178.702,193.587 174.681,202.094 169.055 L 205.304 166.931 209.211 166.887 C 211.361 166.862,219.651 166.757,227.634 166.652 C 245.275 166.421,243.545 166.376,243.545 167.072 M379.555 179.786 C 396.739 188.884,398.617 199.268,384.782 208.685 C 379.935 211.984,380.195 212.073,380.377 207.168 C 380.506 203.713,379.784 196.891,379.189 195.928 C 379.123 195.820,378.689 193.426,378.227 190.608 C 377.764 187.791,377.118 184.355,376.793 182.973 C 375.535 177.642,375.526 177.653,379.555 179.786 M370.399 181.368 C 371.353 184.569,372.401 190.371,372.567 193.366 C 372.887 199.173,371.185 200.684,363.852 201.106 C 362.163 201.203,359.902 201.395,358.828 201.534 C 355.373 201.980,337.536 202.639,319.749 202.978 C 301.168 203.332,300.717 203.341,287.648 203.613 C 278.755 203.797,253.314 204.644,241.172 205.159 C 232.906 205.509,220.295 205.930,207.676 206.277 C 202.533 206.418,195.750 206.662,192.603 206.818 C 189.456 206.974,183.426 207.172,179.204 207.259 C 174.983 207.346,169.456 207.538,166.923 207.686 C 164.389 207.834,157.167 208.090,150.872 208.254 C 136.297 208.633,131.910 208.872,131.377 209.314 C 125.823 213.924,88.963 216.683,71.598 213.789 C 56.935 211.345,44.901 204.920,37.934 195.813 C 35.426 192.536,35.474 191.876,38.146 192.871 C 55.725 199.418,68.803 202.819,86.950 205.559 C 103.512 208.060,127.748 208.554,149.058 206.824 C 151.130 206.656,155.150 206.344,157.990 206.132 C 160.830 205.919,165.290 205.554,167.900 205.321 C 174.925 204.693,181.477 204.100,184.787 203.791 C 186.399 203.641,190.105 203.319,193.022 203.076 C 195.939 202.833,199.518 202.512,200.977 202.363 C 202.435 202.215,205.136 201.970,206.978 201.820 C 208.821 201.670,211.584 201.418,213.119 201.261 C 214.655 201.103,218.863 200.721,222.470 200.412 C 226.078 200.103,230.851 199.669,233.077 199.448 C 235.304 199.227,239.512 198.846,242.428 198.601 C 245.345 198.357,249.428 197.982,251.500 197.768 C 253.573 197.555,256.336 197.306,257.641 197.215 C 258.946 197.125,261.207 196.932,262.666 196.785 C 267.553 196.295,274.220 195.677,277.599 195.401 C 279.442 195.250,282.142 195.006,283.601 194.859 C 285.059 194.711,288.639 194.387,291.556 194.139 C 294.473 193.890,298.053 193.562,299.512 193.409 C 300.970 193.256,304.299 192.952,306.909 192.734 C 309.518 192.515,313.664 192.149,316.120 191.921 C 318.576 191.692,322.031 191.377,323.796 191.220 C 331.885 190.500,342.381 188.856,347.802 187.460 C 348.646 187.243,350.091 186.874,351.012 186.642 C 355.180 185.589,360.675 183.482,365.347 181.145 C 369.636 179.000,369.694 179.002,370.399 181.368 M56.886 181.871 C 57.916 182.109,59.236 182.430,59.821 182.585 C 62.771 183.364,75.162 185.427,79.807 185.913 C 82.527 186.198,83.608 186.620,82.788 187.079 C 82.053 187.491,71.438 188.451,69.644 188.268 C 63.350 187.626,59.267 186.221,55.689 183.467 C 53.257 181.594,53.617 181.114,56.886 181.871 M24.663 187.447 L 26.737 188.431 28.043 191.063 C 36.552 208.207,53.886 218.352,78.437 220.557 C 94.608 222.009,119.932 219.705,131.054 215.770 C 134.650 214.497,135.283 214.403,140.405 214.373 C 142.938 214.358,147.900 214.231,151.431 214.091 C 154.962 213.950,162.373 213.709,167.900 213.556 C 173.426 213.403,180.775 213.144,184.229 212.981 C 187.683 212.817,194.717 212.564,199.860 212.419 C 205.003 212.273,212.603 212.028,216.748 211.873 C 220.893 211.718,229.812 211.399,236.567 211.164 C 243.322 210.929,253.810 210.552,259.874 210.327 C 269.721 209.961,278.772 209.685,296.581 209.210 C 299.651 209.128,309.072 208.937,317.516 208.785 C 354.152 208.125,368.609 207.207,372.372 205.300 C 374.054 204.448,373.994 204.447,374.328 205.326 C 375.716 208.976,371.178 216.050,365.683 218.800 C 360.859 221.214,357.869 221.780,347.802 222.183 C 344.040 222.334,340.209 222.521,339.288 222.600 C 338.367 222.678,335.918 222.813,333.845 222.899 C 331.773 222.985,327.376 223.172,324.075 223.314 C 320.775 223.456,313.866 223.699,308.723 223.855 C 303.580 224.010,295.164 224.273,290.021 224.439 C 269.929 225.086,207.083 225.783,167.010 225.804 C 145.485 225.815,136.018 225.911,135.468 226.125 C 129.769 228.335,111.698 230.000,93.371 230.003 C 45.446 230.012,29.393 221.346,22.800 191.905 C 21.813 187.500,21.765 187.139,22.123 186.782 C 22.528 186.377,22.263 186.307,24.663 187.447 M24.020 212.212 C 28.590 219.954,36.331 226.715,43.685 229.387 C 44.145 229.555,45.590 230.083,46.895 230.562 C 58.608 234.856,78.577 236.750,103.378 235.920 C 118.876 235.400,127.657 234.407,135.963 232.233 C 138.623 231.537,194.816 231.483,195.048 232.177 C 195.190 232.604,192.369 233.948,187.523 235.762 C 174.455 240.654,156.742 244.222,137.474 245.843 C 125.273 246.870,89.410 246.250,85.637 244.948 C 85.438 244.879,84.082 244.690,82.624 244.528 C 80.227 244.261,76.461 243.697,71.458 242.854 C 69.171 242.469,61.200 240.772,59.172 240.238 C 30.648 232.735,16.754 222.093,21.493 211.379 C 22.221 209.736,22.640 209.874,24.020 212.212 M389.235 213.788 C 389.320 213.926,389.089 214.836,388.722 215.812 C 383.336 230.115,370.930 240.695,354.082 245.351 C 345.166 247.816,337.406 249.153,325.750 250.235 C 323.217 250.470,319.763 250.793,318.074 250.953 C 316.385 251.113,313.496 251.365,311.654 251.513 C 309.812 251.661,307.174 251.900,305.792 252.045 C 304.410 252.190,302.463 252.376,301.465 252.458 C 300.468 252.541,297.641 252.792,295.185 253.016 C 292.729 253.239,288.458 253.625,285.694 253.872 C 282.931 254.119,278.849 254.496,276.622 254.708 C 274.396 254.921,271.696 255.168,270.621 255.258 C 269.546 255.348,267.348 255.546,265.736 255.697 C 264.124 255.848,259.979 256.222,256.525 256.528 C 253.070 256.833,248.297 257.270,245.918 257.499 C 243.538 257.727,239.330 258.108,236.567 258.345 C 233.803 258.583,230.349 258.906,228.890 259.063 C 227.432 259.221,224.040 259.531,221.354 259.752 C 218.667 259.974,214.459 260.344,212.003 260.574 C 207.374 261.009,201.095 261.562,193.161 262.234 C 190.628 262.448,187.237 262.752,185.625 262.910 C 184.013 263.067,180.495 263.396,177.809 263.641 C 175.122 263.885,171.291 264.247,169.295 264.445 C 164.096 264.960,163.457 264.337,167.620 262.813 C 170.474 261.768,173.609 260.180,176.939 258.092 C 181.484 255.242,182.673 254.926,186.550 255.533 C 200.387 257.699,209.350 257.148,222.470 253.325 C 231.310 250.749,239.610 246.026,248.143 238.715 C 251.192 236.104,253.098 234.696,254.571 233.970 L 256.664 232.938 260.293 232.959 C 265.613 232.989,269.591 234.469,276.971 239.162 C 285.895 244.838,287.301 245.644,290.440 246.892 C 299.278 250.406,308.853 250.434,322.959 246.989 C 340.777 242.637,350.236 237.631,356.335 229.326 C 357.606 227.595,357.620 227.585,359.755 227.104 C 364.543 226.024,367.863 224.702,370.762 222.723 C 371.681 222.096,373.840 220.980,375.562 220.243 C 379.794 218.431,382.636 216.992,385.629 215.146 C 388.111 213.614,388.936 213.303,389.235 213.788 M14.832 217.608 C 16.604 227.124,25.202 234.566,41.870 241.010 C 45.894 242.565,46.270 242.763,46.802 243.604 C 55.072 256.679,65.534 260.394,86.532 257.712 C 100.944 255.871,105.220 256.237,118.214 260.424 C 122.678 261.863,129.613 263.984,131.333 264.436 C 136.883 265.896,137.734 266.312,135.915 266.676 C 134.567 266.946,115.662 266.875,111.235 266.584 C 97.094 265.654,90.486 264.795,77.739 262.233 C 68.247 260.325,63.470 259.053,52.477 255.506 C 40.901 251.772,21.988 243.391,16.367 239.506 C 8.147 233.823,6.746 224.507,12.845 216.087 C 14.010 214.480,14.290 214.695,14.832 217.608 M348.810 228.662 C 349.759 230.197,338.635 236.358,330.495 238.807 C 306.592 245.999,297.772 245.486,282.978 236.041 C 276.869 232.141,276.880 232.041,283.383 232.513 C 289.814 232.979,312.747 232.749,319.749 232.148 C 330.763 231.203,340.921 229.857,346.406 228.617 C 347.881 228.284,348.585 228.297,348.810 228.662 M246.416 231.359 C 248.639 232.770,232.526 243.554,223.192 246.902 C 213.324 250.442,200.129 251.831,191.079 250.282 C 182.779 248.861,179.505 249.374,174.029 252.951 C 164.763 259.004,153.051 261.871,142.406 260.692 C 137.254 260.121,134.371 259.399,123.936 256.063 C 113.657 252.777,113.423 252.623,118.679 252.605 C 128.609 252.570,142.940 251.508,154.253 249.967 C 161.944 248.920,172.045 246.832,178.646 244.926 C 180.565 244.371,182.575 243.791,183.112 243.635 C 183.986 243.382,188.051 241.973,190.649 241.022 C 195.732 239.162,203.417 235.147,207.075 232.440 L 208.289 231.542 222.986 231.398 C 231.069 231.318,239.567 231.226,241.870 231.193 C 244.173 231.159,246.218 231.234,246.416 231.359 M376.832 241.408 C 376.832 241.778,375.733 242.679,375.529 242.475 C 375.429 242.375,375.575 242.040,375.853 241.732 C 376.380 241.150,376.832 241.001,376.832 241.408 M60.526 246.738 C 65.296 247.946,74.241 249.532,80.251 250.235 C 85.768 250.882,86.024 250.930,85.899 251.306 C 85.734 251.801,83.316 252.252,78.784 252.632 C 69.743 253.391,63.699 251.965,58.269 247.792 C 56.218 246.215,57.005 245.847,60.526 246.738 M380.297 248.049 C 381.249 250.530,378.044 256.926,374.531 259.557 C 369.619 263.235,365.214 264.345,353.381 264.886 C 349.929 265.044,344.843 265.301,342.080 265.457 C 317.257 266.858,227.604 268.668,202.107 268.284 C 197.416 268.213,200.968 267.410,209.032 266.718 C 211.587 266.499,215.248 266.187,217.167 266.025 C 221.717 265.640,229.174 264.953,232.519 264.610 C 233.978 264.460,237.369 264.151,240.056 263.923 C 249.844 263.094,251.381 262.956,252.477 262.811 C 253.519 262.674,259.348 262.160,266.853 261.544 C 268.618 261.399,272.135 261.089,274.669 260.855 C 280.962 260.274,287.270 259.700,293.091 259.178 C 295.778 258.937,299.232 258.612,300.768 258.457 C 302.303 258.301,305.694 257.994,308.304 257.775 C 310.914 257.555,315.059 257.181,317.516 256.944 C 319.972 256.706,323.929 256.328,326.308 256.104 C 337.736 255.025,345.740 253.703,353.510 251.610 C 357.663 250.492,357.369 250.532,365.666 249.950 C 372.799 249.449,375.861 249.001,377.669 248.193 C 379.222 247.500,380.068 247.453,380.297 248.049 M42.783 258.372 C 49.795 261.120,62.077 264.804,71.458 266.975 C 75.621 267.938,77.163 268.252,82.345 269.192 C 87.845 270.190,88.917 270.345,97.026 271.321 C 101.593 271.871,102.442 272.045,102.442 272.434 C 102.442 273.074,92.563 272.946,79.972 272.144 C 61.823 270.988,49.256 267.010,41.277 259.896 C 38.368 257.303,38.839 256.826,42.783 258.372 " stroke="none" fill="#090806" fill-rule="evenodd"></path><path id="path1" d="M243.354 6.061 C 243.114 6.335,241.630 9.009,240.055 12.003 C 238.479 14.997,237.101 17.572,236.991 17.725 C 236.881 17.879,235.624 20.265,234.198 23.029 C 232.773 25.792,231.511 28.179,231.394 28.332 C 230.812 29.101,228.586 33.839,228.678 34.114 C 228.788 34.445,230.849 31.368,237.877 20.377 C 247.418 5.457,246.766 6.681,245.429 6.197 C 245.007 6.044,244.465 5.839,244.225 5.741 C 243.972 5.638,243.607 5.772,243.354 6.061 M312.631 26.681 C 311.633 26.733,308.807 26.910,306.350 27.075 C 303.894 27.239,299.686 27.490,296.999 27.631 C 294.313 27.772,290.356 28.013,288.207 28.167 C 286.057 28.321,281.033 28.643,277.041 28.883 C 273.050 29.123,268.214 29.444,266.294 29.595 C 264.375 29.746,260.607 29.995,257.920 30.148 C 255.234 30.301,251.654 30.546,249.965 30.693 C 248.276 30.839,244.634 31.105,241.870 31.284 C 235.755 31.681,235.904 31.627,234.472 33.970 C 233.833 35.014,232.693 36.864,231.938 38.080 C 230.284 40.743,230.294 40.337,231.839 42.325 C 239.622 52.335,236.871 70.064,225.077 85.905 C 212.682 102.554,192.631 103.856,181.021 88.767 C 169.046 73.205,181.510 44.667,204.370 35.309 C 209.105 33.371,207.817 33.231,194.278 34.209 C 183.029 35.022,177.324 35.468,172.924 35.879 C 170.468 36.108,167.641 36.364,166.643 36.447 C 165.645 36.531,163.133 36.783,161.061 37.007 C 158.988 37.231,155.534 37.604,153.385 37.834 C 146.013 38.625,131.168 40.612,124.355 41.720 C 119.714 42.474,116.826 42.972,115.562 43.236 C 114.871 43.380,113.175 43.704,111.793 43.957 C 110.412 44.210,108.465 44.601,107.467 44.826 C 106.469 45.051,104.208 45.559,102.442 45.954 C 100.677 46.349,98.479 46.841,97.558 47.048 C 96.066 47.383,95.593 47.366,93.231 46.894 C 71.381 42.528,51.815 43.694,41.852 49.957 C 27.396 59.044,23.962 70.544,25.641 104.257 C 27.335 138.254,53.918 153.984,102.582 149.784 C 113.803 148.816,120.856 147.498,127.232 145.178 L 130.216 144.092 140.405 143.765 C 146.008 143.585,154.613 143.320,159.525 143.176 C 164.438 143.032,169.400 142.862,170.551 142.799 C 171.703 142.736,178.109 142.548,184.787 142.381 C 191.465 142.215,197.391 142.015,197.956 141.939 C 198.521 141.863,203.482 141.668,208.982 141.507 C 214.481 141.345,219.860 141.167,220.935 141.110 C 222.010 141.053,227.285 140.872,232.659 140.707 C 238.032 140.542,245.380 140.275,248.988 140.114 C 259.026 139.667,269.394 139.331,283.043 139.013 C 289.874 138.854,300.803 138.596,307.327 138.440 C 313.852 138.285,324.843 138.031,331.752 137.877 C 343.104 137.624,356.664 136.990,358.222 136.639 C 358.555 136.564,360.283 136.383,362.062 136.236 C 370.442 135.547,371.291 132.816,367.713 118.074 C 366.209 111.876,361.492 97.415,358.334 89.323 C 357.945 88.325,357.215 86.441,356.713 85.136 C 355.903 83.032,350.555 69.635,349.805 67.830 C 349.645 67.446,348.324 64.117,346.869 60.433 C 344.409 54.205,343.565 52.028,341.350 46.197 C 334.890 29.189,329.878 25.783,312.631 26.681 M323.030 27.502 C 331.986 28.834,335.802 33.081,341.261 47.793 C 341.961 49.678,344.966 57.313,347.938 64.759 C 358.253 90.600,359.324 93.432,363.141 104.955 C 368.733 121.838,370.269 131.391,367.792 133.869 C 365.647 136.014,351.825 137.006,315.701 137.608 C 299.070 137.885,280.345 138.342,268.667 138.756 C 264.061 138.919,257.090 139.160,253.175 139.291 C 249.260 139.422,242.791 139.666,238.800 139.833 C 234.808 140.000,227.460 140.257,222.470 140.404 C 217.481 140.551,210.133 140.795,206.141 140.945 C 199.828 141.183,181.921 141.779,168.318 142.205 C 132.661 143.321,128.746 143.525,127.704 144.319 C 123.210 147.743,92.613 150.712,75.925 149.343 C 46.895 146.962,28.841 131.842,26.493 107.946 C 26.009 103.022,25.990 80.238,26.467 76.622 C 28.299 62.730,33.612 54.660,44.522 49.195 C 54.351 44.272,73.730 43.583,92.799 47.480 C 95.965 48.127,96.182 48.113,101.186 46.920 C 107.377 45.445,118.586 43.269,125.052 42.286 C 126.664 42.041,129.114 41.663,130.495 41.447 C 131.877 41.230,134.578 40.857,136.497 40.619 C 138.416 40.380,141.242 40.007,142.777 39.789 C 144.313 39.572,146.197 39.323,146.964 39.236 C 147.732 39.150,150.558 38.823,153.245 38.510 C 155.932 38.197,160.140 37.760,162.596 37.539 C 165.052 37.318,167.502 37.069,168.039 36.986 C 169.188 36.809,173.601 36.435,181.158 35.874 C 184.152 35.652,188.172 35.341,190.091 35.184 C 204.225 34.027,205.630 34.076,202.178 35.602 C 194.370 39.055,185.107 47.987,180.425 56.576 C 172.961 70.269,174.148 83.667,183.600 92.411 C 197.451 105.226,215.539 101.592,227.454 83.601 C 237.809 67.965,239.839 51.769,232.620 42.380 C 231.100 40.402,231.098 40.435,232.868 37.712 C 233.674 36.472,234.756 34.768,235.272 33.925 C 236.333 32.194,236.285 32.211,240.614 31.989 C 243.295 31.851,252.166 31.253,259.595 30.710 C 268.892 30.030,271.788 29.831,278.158 29.433 C 281.842 29.203,286.930 28.899,289.463 28.758 C 291.996 28.616,295.827 28.370,297.976 28.211 C 300.126 28.052,304.832 27.787,308.435 27.624 C 312.038 27.460,315.042 27.270,315.111 27.201 C 315.395 26.917,320.369 27.105,323.030 27.502 M219.142 32.910 C 216.917 33.212,217.456 33.743,221.155 34.893 C 222.323 35.256,222.900 34.996,223.307 33.925 C 223.761 32.728,222.589 32.443,219.142 32.910 M222.698 33.706 C 222.595 34.249,221.440 34.485,220.830 34.088 C 220.214 33.688,220.744 33.217,221.809 33.217 C 222.593 33.217,222.772 33.315,222.698 33.706 M207.542 39.119 C 190.924 44.427,177.047 66.732,181.808 80.482 C 185.060 89.875,195.978 96.304,205.381 94.364 C 217.499 91.864,229.939 74.911,231.663 58.548 C 232.038 54.989,231.147 48.890,230.490 50.523 C 229.037 54.139,227.607 55.872,224.983 57.204 C 214.586 62.480,201.358 49.843,208.038 41.016 C 208.530 40.366,209.097 39.613,209.298 39.344 C 209.855 38.595,209.375 38.533,207.542 39.119 M18.744 91.556 C 16.593 101.103,17.568 119.885,20.794 131.054 C 26.422 150.535,35.751 158.777,56.943 162.988 C 71.752 165.931,109.450 165.937,125.331 162.999 C 127.898 162.524,131.859 161.557,132.421 161.269 C 132.756 161.097,141.537 161.011,156.148 161.036 C 183.427 161.082,238.092 160.650,257.362 160.236 C 310.731 159.090,313.437 159.001,346.546 157.277 C 360.281 156.562,366.756 153.669,370.137 146.737 C 372.067 142.778,371.641 139.610,369.339 140.801 C 367.923 141.533,365.207 142.074,361.587 142.344 C 359.609 142.491,356.671 142.741,355.059 142.899 C 351.197 143.277,339.950 143.694,324.634 144.028 C 281.999 144.958,271.286 145.223,257.223 145.697 C 252.770 145.847,248.060 146.031,246.755 146.106 C 245.450 146.181,239.986 146.372,234.613 146.532 C 229.239 146.692,221.766 146.953,218.004 147.112 C 211.635 147.383,199.459 147.800,177.530 148.499 C 172.540 148.658,165.129 148.906,161.061 149.051 C 156.992 149.195,148.639 149.460,142.498 149.640 C 131.927 149.949,131.251 150.001,129.798 150.601 C 114.893 156.755,79.303 158.248,60.511 153.508 C 39.232 148.140,24.641 133.677,20.681 114.027 C 19.853 109.915,19.542 105.851,19.519 98.814 C 19.507 95.359,19.406 91.968,19.294 91.277 L 19.090 90.021 18.744 91.556 M384.508 149.351 C 381.598 151.328,376.993 153.731,372.526 155.603 C 370.896 156.285,369.220 157.087,368.801 157.385 C 365.826 159.496,361.694 161.306,357.843 162.183 C 356.389 162.515,355.053 162.829,354.874 162.882 C 354.696 162.935,353.868 163.897,353.034 165.020 C 349.216 170.164,341.729 175.434,334.682 177.938 C 316.293 184.472,299.910 186.493,290.579 183.377 C 286.817 182.121,282.636 180.144,279.693 178.229 C 269.044 171.299,266.809 170.099,262.298 168.890 C 255.876 167.169,251.718 168.204,246.615 172.793 C 235.058 183.189,222.929 189.008,207.816 191.408 C 203.249 192.133,191.213 192.109,186.602 191.365 C 179.788 190.266,178.190 190.532,173.833 193.488 C 172.046 194.700,165.309 198.184,164.750 198.185 C 164.553 198.185,163.738 198.517,162.938 198.922 C 160.949 199.930,161.820 200.292,165.238 199.878 C 166.548 199.719,169.819 199.400,172.505 199.170 C 175.192 198.939,180.091 198.495,183.391 198.182 C 186.692 197.869,190.915 197.495,192.775 197.350 C 194.635 197.206,196.645 197.017,197.241 196.931 C 197.837 196.845,200.523 196.586,203.210 196.355 C 205.897 196.125,210.105 195.753,212.561 195.528 C 215.017 195.304,218.535 194.992,220.377 194.835 C 222.219 194.678,225.611 194.368,227.913 194.148 C 230.216 193.927,234.299 193.550,236.985 193.311 C 239.672 193.071,243.880 192.689,246.336 192.462 C 248.793 192.235,253.126 191.857,255.967 191.621 C 258.807 191.386,263.077 191.010,265.457 190.786 C 267.837 190.562,271.291 190.244,273.133 190.079 C 274.976 189.915,278.493 189.594,280.949 189.367 C 283.405 189.140,287.488 188.776,290.021 188.558 C 292.554 188.341,295.883 188.037,297.418 187.884 C 298.953 187.731,302.470 187.406,305.234 187.164 C 307.997 186.921,312.205 186.535,314.585 186.307 C 316.964 186.078,319.602 185.831,320.447 185.757 C 331.737 184.773,341.992 183.131,349.228 181.150 C 367.505 176.144,380.062 165.999,385.343 151.968 C 386.481 148.946,386.236 148.178,384.508 149.351 M383.849 153.520 C 376.854 169.195,362.889 178.315,339.428 182.529 C 334.124 183.481,333.090 183.629,327.565 184.230 C 319.597 185.096,317.517 185.305,310.816 185.911 C 307.439 186.216,303.357 186.589,301.745 186.740 C 300.133 186.892,297.244 187.142,295.324 187.298 C 293.405 187.453,290.579 187.705,289.044 187.858 C 287.509 188.011,283.301 188.390,279.693 188.700 C 276.085 189.010,271.940 189.387,270.482 189.538 C 268.103 189.785,264.052 190.152,255.129 190.930 C 253.517 191.071,249.309 191.447,245.778 191.767 C 242.247 192.087,237.976 192.459,236.288 192.595 C 231.691 192.963,223.778 193.682,220.935 193.990 C 219.553 194.139,217.481 194.331,216.329 194.417 C 213.915 194.596,207.225 195.201,200.977 195.806 C 198.597 196.036,194.452 196.416,191.766 196.651 C 186.073 197.147,180.353 197.678,171.862 198.497 C 168.514 198.821,165.708 199.018,165.627 198.937 C 165.546 198.856,166.966 198.049,168.783 197.144 C 170.600 196.240,173.195 194.775,174.549 193.889 C 178.726 191.157,179.755 191.022,187.439 192.197 C 208.602 195.434,229.976 188.585,247.592 172.922 C 254.959 166.372,261.716 167.365,276.742 177.204 C 292.320 187.405,303.780 188.118,329.518 180.486 C 340.073 177.356,348.265 172.334,353.271 165.923 C 354.267 164.647,355.297 163.542,355.559 163.468 C 355.822 163.393,356.769 163.187,357.665 163.009 C 361.177 162.313,364.422 160.972,367.916 158.774 C 369.076 158.044,371.118 157.006,372.454 156.468 C 376.245 154.939,381.513 152.243,384.084 150.514 C 385.454 149.593,385.422 149.994,383.849 153.520 M9.809 151.553 C 6.749 155.424,5.320 162.282,6.670 166.618 C 8.534 172.609,13.951 176.319,32.798 184.516 C 39.144 187.276,47.324 190.238,54.710 192.451 C 62.698 194.844,64.044 195.201,71.598 196.932 C 88.114 200.717,111.888 202.913,128.068 202.150 C 135.065 201.819,135.154 201.647,129.159 200.043 C 126.490 199.329,121.805 197.923,118.748 196.918 C 101.971 191.403,97.191 190.954,80.949 193.366 C 72.915 194.559,63.964 193.950,58.618 191.845 C 52.990 189.629,46.248 183.749,43.591 178.739 C 43.376 178.333,42.370 177.789,40.547 177.092 C 22.281 170.115,12.715 161.929,11.698 152.408 C 11.575 151.256,11.468 150.283,11.460 150.244 C 11.381 149.881,10.710 150.414,9.809 151.553 M11.113 153.835 C 12.706 163.123,22.901 171.255,41.941 178.426 C 42.417 178.604,43.198 179.448,43.986 180.633 C 46.783 184.840,51.394 189.036,55.674 191.268 C 59.405 193.214,58.836 193.107,50.105 190.224 C 33.039 184.587,15.419 176.317,10.775 171.763 C 6.083 167.163,5.638 159.892,9.633 153.076 C 10.589 151.445,10.714 151.509,11.113 153.835 M343.754 163.877 C 343.011 164.104,337.856 164.999,332.729 165.793 C 330.644 166.115,322.159 167.040,317.237 167.482 C 310.974 168.044,296.098 168.309,286.113 168.036 C 280.817 167.892,276.254 167.771,275.974 167.767 C 273.944 167.739,283.616 174.182,289.141 176.538 C 294.391 178.777,303.918 179.621,310.258 178.408 C 322.560 176.056,332.695 172.841,339.287 169.200 C 345.035 166.026,347.901 162.610,343.754 163.877 M227.634 166.652 C 219.651 166.757,211.361 166.862,209.211 166.887 L 205.304 166.931 202.094 169.055 C 193.587 174.681,182.887 178.702,165.806 182.691 C 159.809 184.091,145.869 186.178,138.730 186.744 C 136.811 186.896,133.796 187.144,132.031 187.295 C 130.265 187.447,125.304 187.646,121.005 187.738 C 116.706 187.829,113.018 187.958,112.809 188.024 C 112.234 188.205,112.903 188.887,113.979 189.217 C 114.466 189.367,117.251 190.242,120.167 191.164 C 131.139 194.629,133.402 195.221,137.976 195.824 C 149.540 197.349,161.694 194.477,171.700 187.855 C 176.500 184.678,179.997 184.154,187.299 185.520 C 190.658 186.148,202.914 186.246,206.420 185.673 C 220.436 183.382,231.264 178.393,241.312 169.595 C 243.682 167.521,244.174 166.523,242.847 166.483 C 242.463 166.472,235.618 166.548,227.634 166.652 M365.347 181.145 C 360.675 183.482,355.180 185.589,351.012 186.642 C 350.091 186.874,348.646 187.243,347.802 187.460 C 342.381 188.856,331.885 190.500,323.796 191.220 C 322.031 191.377,318.576 191.692,316.120 191.921 C 313.664 192.149,309.518 192.515,306.909 192.734 C 304.299 192.952,300.970 193.256,299.512 193.409 C 298.053 193.562,294.473 193.890,291.556 194.139 C 288.639 194.387,285.059 194.711,283.601 194.859 C 282.142 195.006,279.442 195.250,277.599 195.401 C 274.220 195.677,267.553 196.295,262.666 196.785 C 261.207 196.932,258.946 197.125,257.641 197.215 C 256.336 197.306,253.573 197.555,251.500 197.768 C 249.428 197.982,245.345 198.357,242.428 198.601 C 239.512 198.846,235.304 199.227,233.077 199.448 C 230.851 199.669,226.078 200.103,222.470 200.412 C 218.863 200.721,214.655 201.103,213.119 201.261 C 211.584 201.418,208.821 201.670,206.978 201.820 C 205.136 201.970,202.435 202.215,200.977 202.363 C 199.518 202.512,195.939 202.833,193.022 203.076 C 190.105 203.319,186.399 203.641,184.787 203.791 C 181.477 204.100,174.925 204.693,167.900 205.321 C 165.290 205.554,160.830 205.919,157.990 206.132 C 155.150 206.344,151.130 206.656,149.058 206.824 C 136.573 207.838,115.116 208.142,105.094 207.449 C 92.274 206.561,79.521 204.701,67.969 202.034 C 58.639 199.879,49.059 196.936,38.146 192.871 C 32.092 190.617,41.407 201.082,50.166 206.378 C 61.981 213.520,78.819 216.178,102.722 214.673 C 115.193 213.888,128.971 211.312,131.377 209.314 C 131.910 208.872,136.297 208.633,150.872 208.254 C 157.167 208.090,164.389 207.834,166.923 207.686 C 169.456 207.538,174.983 207.346,179.204 207.259 C 183.426 207.172,189.456 206.974,192.603 206.818 C 195.750 206.662,202.533 206.418,207.676 206.277 C 220.295 205.930,232.906 205.509,241.172 205.159 C 253.314 204.644,278.755 203.797,287.648 203.613 C 300.717 203.341,301.168 203.332,319.749 202.978 C 337.536 202.639,355.373 201.980,358.828 201.534 C 359.902 201.395,362.163 201.203,363.852 201.106 C 372.647 200.600,373.951 198.233,371.685 186.881 C 370.020 178.537,370.212 178.711,365.347 181.145 M369.793 181.459 C 372.309 189.853,372.594 197.469,370.447 198.998 C 368.783 200.183,356.468 201.399,343.336 201.676 C 339.114 201.765,332.331 201.954,328.262 202.096 C 324.194 202.239,315.150 202.425,308.165 202.511 C 301.179 202.597,292.198 202.791,288.207 202.943 C 284.215 203.094,276.113 203.340,270.202 203.488 C 264.292 203.636,256.441 203.887,252.756 204.045 C 243.842 204.426,231.616 204.855,220.533 205.175 C 215.553 205.319,210.466 205.496,209.228 205.570 C 207.991 205.644,202.268 205.834,196.511 205.994 C 190.754 206.153,184.850 206.348,183.391 206.426 C 166.225 207.351,151.499 207.254,163.712 206.296 C 171.075 205.719,186.098 204.404,187.718 204.194 C 188.332 204.115,190.468 203.925,192.463 203.773 C 194.459 203.620,198.856 203.241,202.233 202.930 C 205.611 202.619,209.881 202.240,211.724 202.089 C 213.566 201.938,215.513 201.748,216.050 201.668 C 216.588 201.588,219.225 201.343,221.912 201.122 C 227.700 200.648,243.252 199.239,254.431 198.176 C 256.120 198.015,258.946 197.766,260.712 197.622 C 262.477 197.478,264.990 197.237,266.294 197.087 C 267.599 196.937,269.798 196.739,271.179 196.646 C 272.561 196.553,274.759 196.357,276.064 196.210 C 278.442 195.941,280.024 195.802,289.881 194.993 C 292.798 194.754,295.444 194.498,295.761 194.425 C 296.079 194.353,297.963 194.164,299.949 194.006 C 301.934 193.848,306.260 193.467,309.560 193.160 C 312.861 192.853,317.069 192.473,318.911 192.316 C 341.825 190.360,355.502 187.176,366.783 181.172 C 369.254 179.856,369.314 179.862,369.793 181.459 M54.203 181.916 C 54.546 183.696,61.362 187.058,66.155 187.812 C 70.022 188.420,71.418 188.429,76.839 187.879 C 84.219 187.130,85.205 186.478,79.807 185.913 C 75.162 185.427,62.771 183.364,59.821 182.585 C 55.228 181.372,54.072 181.234,54.203 181.916 M74.529 186.741 C 73.478 187.078,71.217 187.078,71.738 186.741 C 71.968 186.592,72.847 186.481,73.692 186.494 C 74.877 186.512,75.068 186.569,74.529 186.741 M22.184 188.346 C 22.485 190.790,23.369 194.304,24.715 198.401 C 32.732 222.799,48.127 229.850,93.371 229.843 C 111.743 229.841,123.690 228.896,132.449 226.752 C 133.985 226.377,135.680 225.962,136.218 225.831 C 136.755 225.700,160.998 225.526,190.091 225.444 C 242.249 225.298,256.779 225.131,291.137 224.280 C 307.959 223.864,334.474 222.898,336.776 222.617 C 337.390 222.543,341.472 222.345,345.848 222.178 C 350.223 222.011,355.063 221.702,356.602 221.490 C 366.671 220.107,373.751 214.344,374.246 207.129 C 374.424 204.525,374.404 204.510,372.051 205.545 C 368.977 206.898,358.304 207.857,340.823 208.353 C 337.983 208.434,333.273 208.574,330.356 208.664 C 327.439 208.755,317.893 208.946,309.142 209.089 C 292.704 209.357,283.832 209.597,263.503 210.325 C 248.903 210.848,229.707 211.522,223.726 211.723 C 221.270 211.805,215.806 211.996,211.584 212.148 C 207.362 212.300,196.183 212.674,186.741 212.980 C 177.299 213.285,165.869 213.660,161.340 213.812 C 156.811 213.964,148.897 214.223,143.754 214.387 L 134.403 214.685 131.851 215.633 C 116.676 221.272,82.409 222.761,65.038 218.535 C 47.240 214.206,35.015 205.129,27.854 190.928 C 26.696 188.631,26.600 188.526,24.851 187.648 C 22.185 186.309,21.942 186.373,22.184 188.346 M100.926 193.016 C 103.780 193.393,108.715 194.520,112.073 195.562 C 112.840 195.801,115.729 196.728,118.493 197.622 C 125.046 199.744,127.281 200.417,127.821 200.429 C 128.064 200.434,128.570 200.609,128.945 200.817 C 130.141 201.479,124.490 201.654,114.166 201.275 C 100.874 200.788,98.634 200.601,87.230 199.036 C 81.291 198.221,67.526 195.462,67.057 194.994 C 66.970 194.907,68.704 194.836,70.909 194.836 C 73.114 194.836,75.930 194.708,77.166 194.552 C 78.402 194.395,80.858 194.076,82.624 193.843 C 84.389 193.609,87.340 193.289,89.180 193.130 C 91.021 192.972,92.580 192.788,92.646 192.722 C 92.916 192.453,98.043 192.635,100.926 193.016 M46.615 196.573 C 54.897 199.383,64.732 202.125,70.900 203.343 C 72.205 203.600,74.089 203.980,75.087 204.186 C 79.500 205.096,82.686 205.615,91.417 206.847 C 98.145 207.796,106.156 208.267,118.326 208.429 C 132.411 208.616,132.394 208.613,127.285 210.201 C 113.151 214.596,83.096 215.796,68.445 212.551 C 55.030 209.580,44.608 203.619,38.408 195.371 C 36.736 193.147,36.775 193.052,39.009 193.909 C 40.045 194.306,43.468 195.505,46.615 196.573 M387.439 214.074 C 385.332 215.638,380.235 218.293,375.297 220.398 C 373.915 220.987,371.893 222.048,370.804 222.755 C 368.380 224.330,364.607 225.979,362.097 226.561 C 357.577 227.608,357.535 227.629,356.180 229.518 C 351.227 236.423,341.963 241.919,329.658 245.255 C 303.657 252.304,296.011 251.442,277.196 239.345 C 264.767 231.353,257.687 230.712,250.362 236.916 C 244.661 241.745,243.150 242.939,240.614 244.621 C 224.586 255.246,206.749 258.839,186.374 255.548 C 182.526 254.926,181.600 255.189,176.553 258.338 C 173.217 260.419,171.157 261.477,168.172 262.641 C 166.947 263.118,165.632 263.756,165.248 264.058 L 164.550 264.607 165.650 264.613 C 166.751 264.620,169.426 264.400,177.530 263.638 C 185.312 262.906,191.007 262.390,194.557 262.094 C 199.000 261.723,205.664 261.136,211.724 260.580 C 214.334 260.341,218.656 259.958,221.329 259.728 C 224.003 259.498,227.331 259.191,228.726 259.045 C 230.122 258.899,233.524 258.580,236.288 258.334 C 239.051 258.089,243.322 257.706,245.778 257.482 C 248.234 257.258,251.061 257.007,252.059 256.925 C 253.057 256.842,255.003 256.656,256.385 256.511 C 257.767 256.367,260.405 256.126,262.247 255.977 C 265.872 255.684,269.579 255.352,276.343 254.715 C 283.688 254.024,286.631 253.753,291.696 253.304 C 294.382 253.066,298.528 252.696,300.907 252.481 C 303.287 252.266,306.741 251.955,308.583 251.790 C 310.426 251.624,313.880 251.308,316.260 251.086 C 318.639 250.865,322.784 250.485,325.471 250.242 C 356.754 247.417,373.953 239.990,383.959 224.983 C 386.598 221.025,389.734 214.251,389.183 213.700 C 388.879 213.396,388.138 213.555,387.439 214.074 M388.276 214.784 C 388.276 215.264,385.824 220.634,384.829 222.331 C 377.060 235.589,363.000 243.777,341.940 247.309 C 340.021 247.631,337.697 248.028,336.776 248.191 C 335.855 248.354,334.096 248.593,332.868 248.721 C 325.979 249.442,318.797 250.149,315.980 250.385 C 314.215 250.533,309.881 250.909,306.350 251.222 C 302.819 251.534,297.795 251.973,295.185 252.197 C 292.575 252.422,290.000 252.675,289.463 252.761 C 288.925 252.846,286.978 253.028,285.136 253.165 C 279.552 253.581,271.789 254.281,270.900 254.450 C 270.440 254.537,268.555 254.717,266.713 254.849 C 262.889 255.125,254.859 255.832,250.942 256.239 C 249.484 256.390,246.720 256.647,244.801 256.809 C 242.882 256.971,239.993 257.229,238.381 257.381 C 236.769 257.534,234.131 257.783,232.519 257.934 C 230.907 258.085,227.516 258.406,224.983 258.646 C 222.449 258.887,218.995 259.186,217.306 259.313 C 213.621 259.588,205.487 260.322,201.814 260.710 C 199.259 260.980,191.565 261.652,185.764 262.112 C 180.384 262.538,173.181 263.225,170.755 263.543 C 168.440 263.846,167.325 263.741,168.488 263.329 C 170.021 262.787,175.411 260.014,177.111 258.892 C 181.411 256.056,183.708 255.615,188.707 256.667 C 202.789 259.629,223.096 255.890,236.985 247.777 C 241.727 245.008,243.531 243.673,249.814 238.285 C 258.173 231.117,264.759 231.879,279.553 241.728 C 286.255 246.189,291.140 248.425,296.681 249.566 C 301.648 250.590,313.646 250.133,319.040 248.716 C 319.583 248.573,321.221 248.187,322.680 247.858 C 339.543 244.059,350.613 238.249,356.756 229.975 C 358.036 228.251,358.213 228.118,359.454 227.949 C 360.729 227.776,361.950 227.448,364.969 226.467 C 366.911 225.836,370.021 224.261,371.598 223.111 C 372.327 222.579,374.086 221.669,375.506 221.088 C 379.243 219.560,382.480 217.957,385.345 216.214 C 387.745 214.755,388.276 214.495,388.276 214.784 M13.037 215.861 C 11.131 218.359,9.831 221.831,9.083 226.422 C 8.639 229.146,10.384 233.876,12.791 236.476 C 17.374 241.427,36.957 250.568,55.827 256.566 C 59.638 257.777,64.929 259.313,66.713 259.725 C 67.558 259.921,69.253 260.338,70.482 260.654 C 81.551 263.495,96.308 265.620,111.654 266.584 C 116.216 266.870,134.895 266.895,135.885 266.616 C 137.408 266.187,136.903 265.951,131.193 264.419 C 129.279 263.905,124.580 262.493,122.540 261.818 C 104.958 256.004,99.937 255.562,82.205 258.268 C 66.871 260.609,55.078 255.882,47.159 244.222 C 46.112 242.680,46.027 242.623,43.027 241.503 C 31.640 237.253,22.355 231.376,18.318 225.864 C 16.565 223.472,15.530 221.078,14.926 218.023 C 14.280 214.756,14.066 214.511,13.037 215.861 M13.960 217.237 C 13.993 225.553,24.664 235.096,41.172 241.574 C 43.015 242.297,44.789 242.995,45.116 243.125 C 45.442 243.255,46.443 244.404,47.340 245.677 C 50.429 250.060,53.639 253.013,58.130 255.604 C 61.333 257.453,61.286 257.456,55.827 255.785 C 54.061 255.244,52.177 254.628,51.640 254.416 C 51.103 254.204,49.030 253.447,47.034 252.735 C 43.273 251.392,35.960 248.552,35.191 248.135 C 34.539 247.781,30.965 246.197,30.818 246.197 C 29.293 246.197,15.652 238.388,13.656 236.372 C 9.630 232.306,8.800 225.801,11.563 219.979 C 13.365 216.183,13.953 215.510,13.960 217.237 M346.406 228.617 C 340.921 229.857,330.763 231.203,319.749 232.148 C 312.747 232.749,289.814 232.979,283.383 232.513 C 276.880 232.041,276.869 232.141,282.978 236.041 C 292.876 242.360,297.827 243.943,306.606 243.595 C 313.912 243.305,326.284 240.570,334.822 237.358 C 344.022 233.897,352.993 227.128,346.406 228.617 M222.986 231.398 L 208.289 231.542 207.075 232.440 C 203.417 235.147,195.732 239.162,190.649 241.022 C 188.051 241.973,183.986 243.382,183.112 243.635 C 182.575 243.791,180.565 244.371,178.646 244.926 C 172.045 246.832,161.944 248.920,154.253 249.967 C 142.940 251.508,128.609 252.570,118.679 252.605 C 113.423 252.623,113.657 252.777,123.936 256.063 C 134.371 259.399,137.254 260.121,142.406 260.692 C 153.051 261.871,164.763 259.004,174.029 252.951 C 179.505 249.374,182.779 248.861,191.079 250.282 C 208.341 253.236,229.318 247.134,243.454 235.045 C 247.920 231.225,247.872 231.106,241.870 231.193 C 239.567 231.226,231.069 231.318,222.986 231.398 M375.853 241.732 C 375.575 242.040,375.429 242.375,375.529 242.475 C 375.733 242.679,376.832 241.778,376.832 241.408 C 376.832 241.001,376.380 241.150,375.853 241.732 M57.223 246.592 C 57.223 247.812,63.023 251.033,66.996 252.019 C 72.148 253.297,85.402 252.797,85.899 251.306 C 86.024 250.930,85.768 250.882,80.251 250.235 C 74.241 249.532,65.296 247.946,60.526 246.738 C 57.980 246.094,57.223 246.061,57.223 246.592 M377.948 248.185 C 375.882 249.107,373.464 249.467,365.108 250.096 C 360.733 250.426,356.588 250.871,355.897 251.086 C 353.667 251.781,348.024 253.112,344.871 253.689 C 335.841 255.339,331.959 255.775,303.419 258.338 C 300.733 258.580,296.588 258.958,294.208 259.179 C 291.828 259.401,288.374 259.716,286.532 259.880 C 284.689 260.045,281.235 260.358,278.856 260.576 C 276.476 260.794,272.268 261.164,269.505 261.398 C 263.151 261.935,259.190 262.289,253.733 262.805 C 251.354 263.031,245.827 263.536,241.452 263.929 C 237.076 264.321,231.486 264.827,229.030 265.052 C 226.574 265.277,222.428 265.646,219.819 265.872 C 217.209 266.098,212.920 266.470,210.288 266.700 C 204.042 267.244,201.319 267.686,201.970 268.051 C 203.552 268.936,309.396 266.946,339.707 265.462 C 342.701 265.315,348.039 265.062,351.570 264.899 C 363.581 264.344,367.449 263.622,372.039 261.080 C 376.873 258.403,380.539 252.803,380.137 248.711 C 380.021 247.528,379.632 247.434,377.948 248.185 M104.457 257.797 C 107.304 258.190,110.666 258.910,112.910 259.608 C 113.371 259.751,115.820 260.507,118.353 261.287 C 120.886 262.068,123.461 262.881,124.075 263.095 C 125.315 263.526,129.287 264.697,131.124 265.172 C 133.715 265.842,132.219 266.015,123.866 266.011 C 113.530 266.005,97.392 265.021,93.789 264.176 C 93.405 264.086,92.149 263.907,90.998 263.778 C 88.919 263.545,85.159 262.931,82.484 262.388 C 81.717 262.231,79.456 261.795,77.460 261.418 C 73.492 260.668,69.503 259.696,69.248 259.416 C 69.159 259.319,70.656 259.318,72.575 259.414 C 75.964 259.584,81.980 259.180,86.671 258.468 C 94.042 257.348,99.667 257.136,104.457 257.797 M39.885 258.130 C 40.390 259.050,42.847 261.216,45.149 262.770 C 54.772 269.268,68.575 272.079,93.558 272.628 C 103.396 272.844,104.746 272.399,97.099 271.460 C 77.587 269.063,55.084 263.669,42.507 258.372 C 40.414 257.491,39.488 257.406,39.885 258.130 " stroke="none" fill="#b4933c" fill-rule="evenodd"></path><path id="path2" d="M214.162 42.029 C 208.738 44.732,211.599 52.132,218.539 53.354 C 219.653 53.551,220.346 53.538,220.939 53.310 L 221.773 52.990 220.892 52.524 C 219.667 51.876,216.701 49.077,216.294 48.185 C 215.992 47.521,216.093 47.173,217.282 44.777 C 218.011 43.310,218.538 41.930,218.454 41.711 C 218.194 41.033,215.806 41.210,214.162 42.029 M224.132 50.826 C 223.961 51.147,223.904 51.492,224.006 51.594 C 224.195 51.783,224.983 50.877,224.983 50.470 C 224.983 50.026,224.438 50.255,224.132 50.826 M19.325 91.277 C 19.325 91.814,19.382 92.034,19.453 91.766 C 19.523 91.497,19.523 91.057,19.453 90.789 C 19.382 90.520,19.325 90.740,19.325 91.277 M19.633 104.396 C 19.633 105.548,19.683 106.019,19.743 105.443 C 19.803 104.867,19.803 103.925,19.743 103.350 C 19.683 102.774,19.633 103.245,19.633 104.396 M17.656 112.631 C 17.659 113.245,17.716 113.463,17.783 113.116 C 17.850 112.769,17.847 112.266,17.777 112.000 C 17.707 111.733,17.653 112.017,17.656 112.631 M373.035 113.887 C 372.847 114.076,372.964 115.017,373.392 116.749 C 373.743 118.169,374.293 120.837,374.615 122.680 C 374.936 124.522,375.562 127.976,376.004 130.356 C 377.395 137.826,377.745 142.311,377.140 144.912 C 376.607 147.207,378.130 146.769,382.790 143.289 C 392.855 135.771,393.636 128.335,385.138 120.931 C 381.062 117.380,373.780 113.142,373.035 113.887 M371.325 141.800 C 371.325 142.491,371.380 142.774,371.446 142.428 C 371.513 142.083,371.513 141.518,371.446 141.172 C 371.380 140.827,371.325 141.110,371.325 141.800 M352.059 143.109 C 352.327 143.180,352.767 143.180,353.036 143.109 C 353.304 143.039,353.084 142.982,352.547 142.982 C 352.010 142.982,351.790 143.039,352.059 143.109 M346.480 143.396 C 346.904 143.461,347.532 143.459,347.875 143.393 C 348.219 143.326,347.872 143.274,347.104 143.276 C 346.336 143.278,346.055 143.332,346.480 143.396 M328.621 143.961 C 329.510 144.017,330.892 144.016,331.692 143.960 C 332.492 143.904,331.766 143.858,330.077 143.859 C 328.388 143.859,327.733 143.905,328.621 143.961 M313.538 144.240 C 314.574 144.294,316.270 144.294,317.306 144.240 C 318.343 144.187,317.495 144.143,315.422 144.143 C 313.350 144.143,312.502 144.187,313.538 144.240 M299.581 144.519 C 300.464 144.574,301.909 144.574,302.791 144.519 C 303.674 144.464,302.952 144.418,301.186 144.418 C 299.421 144.418,298.699 144.464,299.581 144.519 M288.007 144.798 C 288.818 144.854,290.074 144.854,290.798 144.797 C 291.522 144.739,290.858 144.693,289.323 144.694 C 287.788 144.694,287.195 144.741,288.007 144.798 M277.259 145.076 C 277.993 145.134,279.123 145.133,279.771 145.075 C 280.419 145.016,279.819 144.969,278.437 144.970 C 277.055 144.971,276.525 145.019,277.259 145.076 M18.337 146.755 C 14.285 155.529,25.481 166.084,45.639 172.494 C 47.174 172.982,48.932 173.556,49.546 173.770 C 52.485 174.793,62.684 177.197,68.388 178.210 C 82.454 180.710,96.027 181.806,113.050 181.819 C 136.724 181.837,155.403 179.567,174.599 174.341 C 180.905 172.624,192.045 168.315,192.045 167.592 C 192.045 167.051,135.994 166.875,133.845 167.409 C 122.211 170.302,112.097 171.197,90.719 171.226 C 48.683 171.284,30.302 164.921,20.703 146.987 C 20.141 145.937,19.655 145.443,19.175 145.433 C 19.051 145.431,18.674 146.026,18.337 146.755 M260.363 145.631 C 260.862 145.693,261.678 145.693,262.177 145.631 C 262.676 145.569,262.268 145.519,261.270 145.519 C 260.272 145.519,259.864 145.569,260.363 145.631 M243.754 146.180 C 244.023 146.250,244.463 146.250,244.731 146.180 C 245.000 146.110,244.780 146.052,244.243 146.052 C 243.706 146.052,243.486 146.110,243.754 146.180 M236.630 146.468 C 237.126 146.530,238.005 146.531,238.584 146.470 C 239.163 146.410,238.758 146.359,237.683 146.358 C 236.609 146.357,236.135 146.406,236.630 146.468 M228.535 146.747 C 229.031 146.809,229.910 146.810,230.489 146.749 C 231.068 146.689,230.663 146.639,229.588 146.637 C 228.514 146.636,228.040 146.686,228.535 146.747 M212.345 147.305 C 212.841 147.367,213.720 147.368,214.299 147.308 C 214.879 147.247,214.473 147.197,213.398 147.196 C 212.324 147.194,211.850 147.244,212.345 147.305 M204.117 147.586 C 204.693 147.647,205.635 147.647,206.211 147.586 C 206.786 147.526,206.315 147.477,205.164 147.477 C 204.013 147.477,203.542 147.526,204.117 147.586 M195.464 147.866 C 196.040 147.926,196.982 147.926,197.558 147.866 C 198.133 147.805,197.662 147.756,196.511 147.756 C 195.359 147.756,194.888 147.805,195.464 147.866 M187.502 148.143 C 187.998 148.205,188.877 148.206,189.456 148.145 C 190.036 148.085,189.630 148.034,188.555 148.033 C 187.481 148.032,187.007 148.081,187.502 148.143 M179.142 148.425 C 179.799 148.484,180.803 148.483,181.375 148.423 C 181.947 148.363,181.410 148.315,180.181 148.316 C 178.953 148.317,178.486 148.366,179.142 148.425 M170.063 148.703 C 170.639 148.763,171.581 148.763,172.156 148.703 C 172.732 148.643,172.261 148.593,171.110 148.593 C 169.958 148.593,169.487 148.643,170.063 148.703 M161.968 148.982 C 162.544 149.042,163.486 149.042,164.061 148.982 C 164.637 148.922,164.166 148.873,163.015 148.873 C 161.863 148.873,161.392 148.922,161.968 148.982 M155.548 149.250 C 155.816 149.321,156.256 149.321,156.525 149.250 C 156.793 149.180,156.574 149.123,156.036 149.123 C 155.499 149.123,155.279 149.180,155.548 149.250 M144.662 149.540 C 145.237 149.601,146.179 149.601,146.755 149.540 C 147.331 149.480,146.860 149.431,145.708 149.431 C 144.557 149.431,144.086 149.480,144.662 149.540 M135.729 149.820 C 136.305 149.880,137.247 149.880,137.823 149.820 C 138.398 149.759,137.927 149.710,136.776 149.710 C 135.625 149.710,135.154 149.759,135.729 149.820 M367.184 150.803 L 366.364 151.710 367.271 150.890 C 368.117 150.126,368.307 149.895,368.091 149.895 C 368.043 149.895,367.635 150.304,367.184 150.803 M30.984 151.099 C 30.984 151.147,31.392 151.555,31.891 152.006 L 32.798 152.826 31.978 151.919 C 31.214 151.073,30.984 150.884,30.984 151.099 M99.023 155.954 C 99.368 156.021,99.934 156.021,100.279 155.954 C 100.625 155.888,100.342 155.833,99.651 155.833 C 98.960 155.833,98.678 155.888,99.023 155.954 M78.091 156.234 C 78.438 156.300,78.941 156.298,79.208 156.228 C 79.475 156.158,79.191 156.104,78.576 156.107 C 77.962 156.110,77.744 156.167,78.091 156.234 M93.440 156.238 C 93.939 156.300,94.756 156.300,95.255 156.238 C 95.754 156.176,95.345 156.126,94.348 156.126 C 93.350 156.126,92.941 156.176,93.440 156.238 M346.895 157.350 C 347.240 157.416,347.805 157.416,348.151 157.350 C 348.496 157.283,348.214 157.229,347.523 157.229 C 346.832 157.229,346.549 157.283,346.895 157.350 M341.176 157.632 C 341.601 157.696,342.229 157.695,342.572 157.628 C 342.915 157.562,342.568 157.510,341.800 157.512 C 341.033 157.514,340.752 157.568,341.176 157.632 M323.308 158.469 C 323.730 158.533,324.421 158.533,324.843 158.469 C 325.265 158.405,324.920 158.353,324.075 158.353 C 323.231 158.353,322.886 158.405,323.308 158.469 M299.442 159.311 C 300.094 159.370,301.162 159.370,301.814 159.311 C 302.467 159.252,301.933 159.204,300.628 159.204 C 299.323 159.204,298.789 159.252,299.442 159.311 M282.415 159.871 C 283.221 159.927,284.539 159.927,285.345 159.871 C 286.151 159.814,285.492 159.768,283.880 159.768 C 282.268 159.768,281.609 159.814,282.415 159.871 M262.736 160.151 C 263.772 160.205,265.468 160.205,266.504 160.151 C 267.540 160.097,266.692 160.054,264.620 160.054 C 262.547 160.054,261.699 160.097,262.736 160.151 M232.743 160.711 C 234.325 160.761,236.837 160.760,238.326 160.710 C 239.815 160.660,238.521 160.619,235.450 160.620 C 232.380 160.620,231.162 160.661,232.743 160.711 M71.807 164.882 C 72.076 164.952,72.516 164.952,72.784 164.882 C 73.053 164.812,72.833 164.754,72.296 164.754 C 71.759 164.754,71.539 164.812,71.807 164.882 M108.374 164.882 C 108.643 164.952,109.082 164.952,109.351 164.882 C 109.620 164.812,109.400 164.754,108.863 164.754 C 108.325 164.754,108.105 164.812,108.374 164.882 M76.413 165.171 C 76.912 165.232,77.729 165.232,78.227 165.171 C 78.726 165.109,78.318 165.058,77.320 165.058 C 76.322 165.058,75.914 165.109,76.413 165.171 M102.652 165.171 C 103.151 165.232,103.967 165.232,104.466 165.171 C 104.965 165.109,104.557 165.058,103.559 165.058 C 102.561 165.058,102.153 165.109,102.652 165.171 M87.439 165.456 C 88.936 165.506,91.385 165.506,92.882 165.456 C 94.379 165.406,93.154 165.365,90.161 165.365 C 87.167 165.365,85.942 165.406,87.439 165.456 M376.068 179.414 C 376.141 179.990,376.467 181.591,376.793 182.973 C 377.118 184.355,377.764 187.791,378.227 190.608 C 378.689 193.426,379.123 195.820,379.189 195.928 C 379.784 196.891,380.506 203.713,380.377 207.168 C 380.195 212.073,379.935 211.984,384.782 208.685 C 398.617 199.268,396.739 188.884,379.555 179.786 C 376.250 178.036,375.889 177.998,376.068 179.414 M35.869 202.652 C 36.468 203.266,37.022 203.768,37.099 203.768 C 37.175 203.768,36.748 203.266,36.148 202.652 C 35.548 202.038,34.995 201.535,34.918 201.535 C 34.841 201.535,35.269 202.038,35.869 202.652 M109.491 202.007 C 109.759 202.077,110.199 202.077,110.468 202.007 C 110.736 201.937,110.516 201.879,109.979 201.879 C 109.442 201.879,109.222 201.937,109.491 202.007 M363.643 207.036 C 363.988 207.102,364.553 207.102,364.899 207.036 C 365.244 206.969,364.962 206.915,364.271 206.915 C 363.580 206.915,363.297 206.969,363.643 207.036 M360.154 207.310 C 360.422 207.381,360.862 207.381,361.130 207.310 C 361.399 207.240,361.179 207.183,360.642 207.183 C 360.105 207.183,359.885 207.240,360.154 207.310 M353.597 207.874 C 353.944 207.940,354.447 207.938,354.714 207.868 C 354.981 207.798,354.696 207.743,354.082 207.747 C 353.468 207.750,353.250 207.807,353.597 207.874 M347.034 208.148 C 347.303 208.218,347.742 208.218,348.011 208.148 C 348.280 208.078,348.060 208.020,347.523 208.020 C 346.985 208.020,346.766 208.078,347.034 208.148 M326.529 208.721 C 327.494 208.775,329.002 208.775,329.878 208.720 C 330.755 208.664,329.965 208.620,328.123 208.620 C 326.281 208.621,325.563 208.666,326.529 208.721 M311.875 209.000 C 312.918 209.054,314.550 209.053,315.504 208.999 C 316.457 208.945,315.604 208.901,313.608 208.901 C 311.612 208.902,310.832 208.946,311.875 209.000 M287.020 209.556 C 287.749 209.614,288.943 209.614,289.672 209.556 C 290.401 209.499,289.805 209.452,288.346 209.452 C 286.888 209.452,286.291 209.499,287.020 209.556 M277.118 209.835 C 277.775 209.894,278.780 209.893,279.351 209.833 C 279.923 209.773,279.386 209.725,278.158 209.726 C 276.930 209.727,276.462 209.776,277.118 209.835 M268.039 210.113 C 268.615 210.173,269.557 210.173,270.133 210.113 C 270.708 210.052,270.237 210.003,269.086 210.003 C 267.934 210.003,267.463 210.052,268.039 210.113 M21.493 211.379 C 16.754 222.093,30.648 232.735,59.172 240.238 C 61.200 240.772,69.171 242.469,71.458 242.854 C 76.461 243.697,80.227 244.261,82.624 244.528 C 84.082 244.690,85.438 244.879,85.637 244.948 C 89.410 246.250,125.273 246.870,137.474 245.843 C 159.563 243.985,180.378 239.364,193.061 233.504 C 194.364 232.903,195.121 232.397,195.048 232.177 C 194.816 231.483,138.623 231.537,135.963 232.233 C 127.657 234.407,118.876 235.400,103.378 235.920 C 78.577 236.750,58.608 234.856,46.895 230.562 C 45.590 230.083,44.145 229.555,43.685 229.387 C 36.331 226.715,28.590 219.954,24.020 212.212 C 22.640 209.874,22.221 209.736,21.493 211.379 M260.642 210.390 C 261.141 210.452,261.957 210.452,262.456 210.390 C 262.955 210.328,262.547 210.278,261.549 210.278 C 260.551 210.278,260.143 210.328,260.642 210.390 M253.385 210.669 C 253.883 210.731,254.700 210.731,255.199 210.669 C 255.698 210.608,255.290 210.557,254.292 210.557 C 253.294 210.557,252.886 210.608,253.385 210.669 M245.010 210.949 C 245.509 211.011,246.326 211.011,246.825 210.949 C 247.324 210.887,246.916 210.836,245.918 210.836 C 244.920 210.836,244.512 210.887,245.010 210.949 M237.188 211.227 C 237.684 211.289,238.563 211.290,239.142 211.230 C 239.722 211.169,239.316 211.119,238.241 211.117 C 237.167 211.116,236.693 211.166,237.188 211.227 M229.658 211.507 C 230.157 211.569,230.973 211.569,231.472 211.507 C 231.971 211.445,231.563 211.394,230.565 211.394 C 229.567 211.394,229.159 211.445,229.658 211.507 M220.999 211.786 C 221.494 211.847,222.373 211.848,222.953 211.788 C 223.532 211.727,223.126 211.677,222.052 211.676 C 220.977 211.674,220.503 211.724,220.999 211.786 M212.345 212.065 C 212.841 212.126,213.720 212.127,214.299 212.067 C 214.879 212.007,214.473 211.956,213.398 211.955 C 212.324 211.954,211.850 212.003,212.345 212.065 M196.156 212.623 C 196.651 212.685,197.530 212.686,198.110 212.625 C 198.689 212.565,198.283 212.514,197.209 212.513 C 196.134 212.512,195.660 212.561,196.156 212.623 M187.927 212.904 C 188.503 212.964,189.445 212.964,190.021 212.904 C 190.597 212.844,190.126 212.794,188.974 212.794 C 187.823 212.794,187.352 212.844,187.927 212.904 M162.115 213.743 C 162.771 213.802,163.776 213.801,164.348 213.741 C 164.920 213.681,164.382 213.633,163.154 213.634 C 161.926 213.635,161.458 213.684,162.115 213.743 M136.288 214.579 C 136.863 214.639,137.805 214.639,138.381 214.579 C 138.957 214.519,138.486 214.469,137.334 214.469 C 136.183 214.469,135.712 214.519,136.288 214.579 M350.105 222.112 C 350.527 222.176,351.218 222.176,351.640 222.112 C 352.062 222.048,351.717 221.996,350.872 221.996 C 350.028 221.996,349.682 222.048,350.105 222.112 M342.987 222.388 C 343.332 222.455,343.897 222.455,344.243 222.388 C 344.588 222.322,344.306 222.267,343.615 222.267 C 342.924 222.267,342.641 222.322,342.987 222.388 M337.125 222.667 C 337.470 222.734,338.036 222.734,338.381 222.667 C 338.726 222.601,338.444 222.546,337.753 222.546 C 337.062 222.546,336.779 222.601,337.125 222.667 M312.276 223.788 C 312.771 223.850,313.651 223.851,314.230 223.791 C 314.809 223.730,314.403 223.680,313.329 223.678 C 312.254 223.677,311.780 223.727,312.276 223.788 M303.210 224.069 C 303.786 224.130,304.728 224.130,305.304 224.069 C 305.879 224.009,305.408 223.960,304.257 223.960 C 303.105 223.960,302.634 224.009,303.210 224.069 M281.448 224.631 C 282.336 224.686,283.718 224.686,284.518 224.630 C 285.319 224.574,284.592 224.528,282.903 224.529 C 281.214 224.529,280.559 224.575,281.448 224.631 M267.481 224.910 C 268.517 224.964,270.213 224.964,271.249 224.910 C 272.285 224.857,271.438 224.813,269.365 224.813 C 267.292 224.813,266.445 224.857,267.481 224.910 M227.162 225.470 C 229.051 225.519,232.066 225.519,233.861 225.470 C 235.656 225.421,234.110 225.382,230.426 225.382 C 226.741 225.382,225.272 225.422,227.162 225.470 M153.733 225.750 C 163.137 225.791,178.524 225.791,187.927 225.750 C 197.331 225.709,189.637 225.676,170.830 225.676 C 152.024 225.676,144.330 225.709,153.733 225.750 M113.957 229.362 C 114.225 229.432,114.665 229.432,114.934 229.362 C 115.202 229.292,114.983 229.234,114.445 229.234 C 113.908 229.234,113.688 229.292,113.957 229.362 M109.211 229.641 C 109.480 229.711,109.920 229.711,110.188 229.641 C 110.457 229.571,110.237 229.513,109.700 229.513 C 109.163 229.513,108.943 229.571,109.211 229.641 M82.003 229.933 C 82.660 229.992,83.665 229.991,84.236 229.931 C 84.808 229.871,84.271 229.823,83.043 229.824 C 81.814 229.825,81.347 229.874,82.003 229.933 M102.373 229.932 C 103.025 229.991,104.093 229.991,104.745 229.932 C 105.398 229.873,104.864 229.825,103.559 229.825 C 102.254 229.825,101.720 229.873,102.373 229.932 M358.342 250.581 C 358.690 250.648,359.192 250.645,359.459 250.576 C 359.726 250.506,359.442 250.451,358.828 250.454 C 358.214 250.457,357.995 250.514,358.342 250.581 M323.308 256.438 C 323.576 256.508,324.016 256.508,324.285 256.438 C 324.553 256.368,324.334 256.310,323.796 256.310 C 323.259 256.310,323.039 256.368,323.308 256.438 M375.842 258.269 L 374.738 259.456 375.925 258.352 C 377.028 257.326,377.239 257.083,377.028 257.083 C 376.982 257.083,376.449 257.617,375.842 258.269 M39.637 258.096 C 39.637 258.244,40.171 258.862,40.823 259.469 L 42.010 260.572 40.893 259.320 C 40.279 258.632,39.745 258.014,39.707 257.948 C 39.669 257.882,39.637 257.948,39.637 258.096 M304.885 258.113 C 305.154 258.183,305.593 258.183,305.862 258.113 C 306.130 258.043,305.911 257.985,305.373 257.985 C 304.836 257.985,304.616 258.043,304.885 258.113 M354.710 264.817 C 355.056 264.883,355.621 264.883,355.967 264.817 C 356.312 264.750,356.029 264.696,355.338 264.696 C 354.648 264.696,354.365 264.750,354.710 264.817 M343.545 265.375 C 343.890 265.441,344.456 265.441,344.801 265.375 C 345.147 265.308,344.864 265.254,344.173 265.254 C 343.482 265.254,343.200 265.308,343.545 265.375 M337.544 265.657 C 337.966 265.721,338.657 265.721,339.079 265.657 C 339.501 265.593,339.156 265.541,338.311 265.541 C 337.467 265.541,337.121 265.593,337.544 265.657 M330.844 265.936 C 331.267 266.000,331.957 266.000,332.380 265.936 C 332.802 265.872,332.456 265.820,331.612 265.820 C 330.768 265.820,330.422 265.872,330.844 265.936 M316.050 266.498 C 316.626 266.558,317.568 266.558,318.144 266.498 C 318.719 266.438,318.248 266.388,317.097 266.388 C 315.946 266.388,315.475 266.438,316.050 266.498 M306.427 266.778 C 307.084 266.837,308.089 266.837,308.661 266.777 C 309.232 266.717,308.695 266.668,307.467 266.669 C 306.239 266.670,305.771 266.719,306.427 266.778 M295.953 267.058 C 296.682 267.115,297.875 267.115,298.604 267.058 C 299.334 267.000,298.737 266.953,297.278 266.953 C 295.820 266.953,295.223 267.000,295.953 267.058 M283.950 267.338 C 284.833 267.394,286.277 267.394,287.160 267.338 C 288.043 267.283,287.320 267.237,285.555 267.237 C 283.789 267.237,283.067 267.283,283.950 267.338 M269.143 267.618 C 270.173 267.671,271.932 267.672,273.051 267.619 C 274.171 267.565,273.329 267.522,271.179 267.521 C 269.030 267.521,268.114 267.564,269.143 267.618 M200.000 267.969 C 199.895 268.139,200.299 268.247,201.030 268.244 C 201.910 268.241,202.121 268.167,201.814 267.969 C 201.266 267.615,200.219 267.615,200.000 267.969 M250.746 267.898 C 252.097 267.949,254.233 267.949,255.492 267.898 C 256.751 267.846,255.645 267.804,253.036 267.804 C 250.426 267.805,249.396 267.847,250.746 267.898 M225.052 268.178 C 227.163 268.225,230.618 268.225,232.729 268.178 C 234.839 268.131,233.112 268.092,228.890 268.092 C 224.669 268.092,222.941 268.131,225.052 268.178 M205.094 268.450 C 205.593 268.512,206.410 268.512,206.909 268.450 C 207.408 268.388,206.999 268.338,206.001 268.338 C 205.003 268.338,204.595 268.388,205.094 268.450 M101.399 272.070 C 101.670 272.141,101.819 272.315,101.732 272.457 C 101.644 272.598,101.768 272.715,102.007 272.715 C 102.247 272.715,102.442 272.602,102.442 272.465 C 102.442 272.186,101.733 271.860,101.233 271.910 C 101.054 271.927,101.129 272.000,101.399 272.070 M83.116 272.354 C 83.463 272.421,83.965 272.418,84.232 272.348 C 84.499 272.278,84.215 272.224,83.601 272.227 C 82.987 272.230,82.768 272.287,83.116 272.354 M97.496 272.920 C 98.230 272.978,99.361 272.977,100.008 272.919 C 100.656 272.860,100.056 272.813,98.674 272.814 C 97.292 272.815,96.762 272.862,97.496 272.920 " stroke="none" fill="#c5312c" fill-rule="evenodd"></path><path id="path3" d="M315.111 27.201 C 315.042 27.270,312.038 27.460,308.435 27.624 C 304.832 27.787,300.126 28.052,297.976 28.211 C 295.827 28.370,291.996 28.616,289.463 28.758 C 286.930 28.899,281.842 29.203,278.158 29.433 C 271.788 29.831,268.892 30.030,259.595 30.710 C 252.166 31.253,243.295 31.851,240.614 31.989 C 236.285 32.211,236.333 32.194,235.272 33.925 C 234.756 34.768,233.674 36.472,232.868 37.712 C 231.098 40.435,231.100 40.402,232.620 42.380 C 244.475 57.799,228.774 94.009,207.955 99.262 C 194.804 102.581,180.236 94.065,176.386 80.809 C 172.064 65.928,185.042 43.180,202.178 35.602 C 205.630 34.076,204.225 34.027,190.091 35.184 C 188.172 35.341,184.152 35.652,181.158 35.874 C 173.601 36.435,169.188 36.809,168.039 36.986 C 167.502 37.069,165.052 37.318,162.596 37.539 C 160.140 37.760,155.932 38.197,153.245 38.510 C 150.558 38.823,147.732 39.150,146.964 39.236 C 146.197 39.323,144.313 39.572,142.777 39.789 C 141.242 40.007,138.416 40.380,136.497 40.619 C 134.578 40.857,131.877 41.230,130.495 41.447 C 129.114 41.663,126.664 42.041,125.052 42.286 C 118.586 43.269,107.377 45.445,101.186 46.920 C 96.182 48.113,95.965 48.127,92.799 47.480 C 73.730 43.583,54.351 44.272,44.522 49.195 C 33.612 54.660,28.299 62.730,26.467 76.622 C 25.990 80.238,26.009 103.022,26.493 107.946 C 28.841 131.842,46.895 146.962,75.925 149.343 C 92.613 150.712,123.210 147.743,127.704 144.319 C 128.746 143.525,132.661 143.321,168.318 142.205 C 181.921 141.779,199.828 141.183,206.141 140.945 C 210.133 140.795,217.481 140.551,222.470 140.404 C 227.460 140.257,234.808 140.000,238.800 139.833 C 242.791 139.666,249.260 139.422,253.175 139.291 C 257.090 139.160,264.061 138.919,268.667 138.756 C 280.345 138.342,299.070 137.885,315.701 137.608 C 351.825 137.006,365.647 136.014,367.792 133.869 C 370.269 131.391,368.733 121.838,363.141 104.955 C 359.324 93.432,358.253 90.600,347.938 64.759 C 344.966 57.313,341.961 49.678,341.261 47.793 C 335.802 33.081,331.986 28.834,323.030 27.502 C 320.369 27.105,315.395 26.917,315.111 27.201 M220.637 33.527 C 220.374 33.952,221.066 34.354,221.910 34.266 C 222.313 34.224,222.644 33.989,222.698 33.706 C 222.806 33.137,220.976 32.979,220.637 33.527 M384.084 150.514 C 381.513 152.243,376.245 154.939,372.454 156.468 C 371.118 157.006,369.076 158.044,367.916 158.774 C 364.422 160.972,361.177 162.313,357.665 163.009 C 356.769 163.187,355.822 163.393,355.559 163.468 C 355.297 163.542,354.267 164.647,353.271 165.923 C 348.265 172.334,340.073 177.356,329.518 180.486 C 303.780 188.118,292.320 187.405,276.742 177.204 C 261.716 167.365,254.959 166.372,247.592 172.922 C 229.976 188.585,208.602 195.434,187.439 192.197 C 179.755 191.022,178.726 191.157,174.549 193.889 C 173.195 194.775,170.600 196.240,168.783 197.144 C 166.966 198.049,165.546 198.856,165.627 198.937 C 165.708 199.018,168.514 198.821,171.862 198.497 C 180.353 197.678,186.073 197.147,191.766 196.651 C 194.452 196.416,198.597 196.036,200.977 195.806 C 207.225 195.201,213.915 194.596,216.329 194.417 C 217.481 194.331,219.553 194.139,220.935 193.990 C 223.778 193.682,231.691 192.963,236.288 192.595 C 237.976 192.459,242.247 192.087,245.778 191.767 C 249.309 191.447,253.517 191.071,255.129 190.930 C 264.052 190.152,268.103 189.785,270.482 189.538 C 271.940 189.387,276.085 189.010,279.693 188.700 C 283.301 188.390,287.509 188.011,289.044 187.858 C 290.579 187.705,293.405 187.453,295.324 187.298 C 297.244 187.142,300.133 186.892,301.745 186.740 C 303.357 186.589,307.439 186.216,310.816 185.911 C 317.517 185.305,319.597 185.096,327.565 184.230 C 333.090 183.629,334.124 183.481,339.428 182.529 C 362.889 178.315,376.854 169.195,383.849 153.520 C 385.422 149.994,385.454 149.593,384.084 150.514 M9.633 153.076 C 6.786 157.934,6.134 164.238,8.072 168.175 C 10.183 172.463,14.343 175.262,27.913 181.525 C 34.642 184.631,42.518 187.718,50.105 190.224 C 58.836 193.107,59.405 193.214,55.674 191.268 C 51.394 189.036,46.783 184.840,43.986 180.633 C 43.198 179.448,42.417 178.604,41.941 178.426 C 22.901 171.255,12.706 163.123,11.113 153.835 C 10.714 151.509,10.589 151.445,9.633 153.076 M366.783 181.172 C 355.502 187.176,341.825 190.360,318.911 192.316 C 317.069 192.473,312.861 192.853,309.560 193.160 C 306.260 193.467,301.934 193.848,299.949 194.006 C 297.963 194.164,296.079 194.353,295.761 194.425 C 295.444 194.498,292.798 194.754,289.881 194.993 C 280.024 195.802,278.442 195.941,276.064 196.210 C 274.759 196.357,272.561 196.553,271.179 196.646 C 269.798 196.739,267.599 196.937,266.294 197.087 C 264.990 197.237,262.477 197.478,260.712 197.622 C 258.946 197.766,256.120 198.015,254.431 198.176 C 243.252 199.239,227.700 200.648,221.912 201.122 C 219.225 201.343,216.588 201.588,216.050 201.668 C 215.513 201.748,213.566 201.938,211.724 202.089 C 209.881 202.240,205.611 202.619,202.233 202.930 C 198.856 203.241,194.459 203.620,192.463 203.773 C 190.468 203.925,188.332 204.115,187.718 204.194 C 186.098 204.404,171.075 205.719,163.712 206.296 C 151.499 207.254,166.225 207.351,183.391 206.426 C 184.850 206.348,190.754 206.153,196.511 205.994 C 202.268 205.834,207.991 205.644,209.228 205.570 C 210.466 205.496,215.553 205.319,220.533 205.175 C 231.616 204.855,243.842 204.426,252.756 204.045 C 256.441 203.887,264.292 203.636,270.202 203.488 C 276.113 203.340,284.215 203.094,288.207 202.943 C 292.198 202.791,301.179 202.597,308.165 202.511 C 315.150 202.425,324.194 202.239,328.262 202.096 C 332.331 201.954,339.114 201.765,343.336 201.676 C 351.072 201.513,366.515 200.380,368.595 199.822 C 372.466 198.785,372.893 195.521,370.579 184.648 C 369.511 179.633,369.571 179.688,366.783 181.172 M71.738 186.741 C 71.217 187.078,73.478 187.078,74.529 186.741 C 75.068 186.569,74.877 186.512,73.692 186.494 C 72.847 186.481,71.968 186.592,71.738 186.741 M92.646 192.722 C 92.580 192.788,91.021 192.972,89.180 193.130 C 87.340 193.289,84.389 193.609,82.624 193.843 C 80.858 194.076,78.402 194.395,77.166 194.552 C 75.930 194.708,73.114 194.836,70.909 194.836 C 68.704 194.836,66.970 194.907,67.057 194.994 C 67.526 195.462,81.291 198.221,87.230 199.036 C 98.634 200.601,100.874 200.788,114.166 201.275 C 124.490 201.654,130.141 201.479,128.945 200.817 C 128.570 200.609,128.064 200.434,127.821 200.429 C 127.281 200.417,125.046 199.744,118.493 197.622 C 111.489 195.355,111.089 195.235,107.346 194.277 C 102.432 193.019,93.314 192.055,92.646 192.722 M37.125 193.425 C 37.125 193.899,39.734 197.121,41.749 199.136 C 48.202 205.589,57.022 210.021,68.445 212.551 C 83.096 215.796,113.151 214.596,127.285 210.201 C 132.394 208.613,132.411 208.616,118.326 208.429 C 106.156 208.267,98.145 207.796,91.417 206.847 C 82.686 205.615,79.500 205.096,75.087 204.186 C 74.089 203.980,72.205 203.600,70.900 203.343 C 62.968 201.777,47.913 197.323,39.009 193.909 C 37.973 193.511,37.125 193.294,37.125 193.425 M385.345 216.214 C 382.480 217.957,379.243 219.560,375.506 221.088 C 374.086 221.669,372.327 222.579,371.598 223.111 C 370.021 224.261,366.911 225.836,364.969 226.467 C 361.950 227.448,360.729 227.776,359.454 227.949 C 358.213 228.118,358.036 228.251,356.756 229.975 C 350.613 238.249,339.543 244.059,322.680 247.858 C 321.221 248.187,319.583 248.573,319.040 248.716 C 313.646 250.133,301.648 250.590,296.681 249.566 C 291.140 248.425,286.255 246.189,279.553 241.728 C 264.759 231.879,258.173 231.117,249.814 238.285 C 243.531 243.673,241.727 245.008,236.985 247.777 C 223.096 255.890,202.789 259.629,188.707 256.667 C 183.708 255.615,181.411 256.056,177.111 258.892 C 175.411 260.014,170.021 262.787,168.488 263.329 C 167.325 263.741,168.440 263.846,170.755 263.543 C 173.181 263.225,180.384 262.538,185.764 262.112 C 191.565 261.652,199.259 260.980,201.814 260.710 C 205.487 260.322,213.621 259.588,217.306 259.313 C 218.995 259.186,222.449 258.887,224.983 258.646 C 227.516 258.406,230.907 258.085,232.519 257.934 C 234.131 257.783,236.769 257.534,238.381 257.381 C 239.993 257.229,242.882 256.971,244.801 256.809 C 246.720 256.647,249.484 256.390,250.942 256.239 C 254.859 255.832,262.889 255.125,266.713 254.849 C 268.555 254.717,270.440 254.537,270.900 254.450 C 271.789 254.281,279.552 253.581,285.136 253.165 C 286.978 253.028,288.925 252.846,289.463 252.761 C 290.000 252.675,292.575 252.422,295.185 252.197 C 297.795 251.973,302.819 251.534,306.350 251.222 C 309.881 250.909,314.215 250.533,315.980 250.385 C 318.797 250.149,325.979 249.442,332.868 248.721 C 334.096 248.593,335.855 248.354,336.776 248.191 C 337.697 248.028,340.021 247.631,341.940 247.309 C 366.039 243.268,381.103 233.053,387.748 216.249 C 388.555 214.209,388.641 214.210,385.345 216.214 M12.790 217.516 C 7.867 226.931,9.184 233.741,16.939 238.974 C 18.639 240.121,30.314 246.197,30.818 246.197 C 30.965 246.197,34.539 247.781,35.191 248.135 C 35.960 248.552,43.273 251.392,47.034 252.735 C 49.030 253.447,51.103 254.204,51.640 254.416 C 52.177 254.628,54.061 255.244,55.827 255.785 C 61.286 257.456,61.333 257.453,58.130 255.604 C 53.639 253.013,50.429 250.060,47.340 245.677 C 46.443 244.404,45.442 243.255,45.116 243.125 C 44.789 242.995,43.015 242.297,41.172 241.574 C 24.664 235.096,13.993 225.553,13.960 217.237 C 13.955 215.997,13.531 216.098,12.790 217.516 M91.975 257.799 C 90.133 258.003,87.746 258.304,86.671 258.468 C 81.980 259.180,75.964 259.584,72.575 259.414 C 70.656 259.318,69.159 259.319,69.248 259.416 C 69.503 259.696,73.492 260.668,77.460 261.418 C 79.456 261.795,81.717 262.231,82.484 262.388 C 85.159 262.931,88.919 263.545,90.998 263.778 C 92.149 263.907,93.405 264.086,93.789 264.176 C 97.392 265.021,113.530 266.005,123.866 266.011 C 132.219 266.015,133.715 265.842,131.124 265.172 C 129.287 264.697,125.315 263.526,124.075 263.095 C 123.461 262.881,120.886 262.068,118.353 261.287 C 115.820 260.507,113.371 259.751,112.910 259.608 C 106.320 257.561,99.458 256.968,91.975 257.799 " stroke="none" fill="#f8d7b2" fill-rule="evenodd"></path></g></svg>