<svg id="svg" version="1.1" width="474" height="86" xmlns="http://www.w3.org/2000/svg" xmlns:xlink="http://www.w3.org/1999/xlink" ><g id="svgg"><path id="path0" d="M110.549 7.709 C 110.549 8.236,111.498 9.547,112.658 10.622 C 114.420 12.255,114.768 13.350,114.768 17.259 L 114.768 21.941 108.650 21.955 C 95.116 21.986,88.045 34.477,93.124 49.382 L 94.440 53.247 89.625 52.995 L 84.810 52.743 84.285 40.311 C 83.731 27.201,83.028 24.767,79.207 22.722 C 76.537 21.293,67.945 22.130,65.854 24.022 C 64.319 25.412,64.135 25.429,64.135 24.181 C 64.135 23.006,63.133 22.785,57.806 22.785 C 50.883 22.785,49.615 23.903,53.586 26.505 C 55.658 27.862,55.696 28.084,55.696 38.893 C 55.696 51.617,55.185 53.165,50.982 53.165 L 48.015 53.165 48.205 48.453 C 48.403 43.572,47.612 42.234,44.515 42.207 C 43.204 42.196,43.039 41.219,43.049 33.544 C 43.063 23.273,43.521 21.097,45.668 21.097 C 47.073 21.097,47.257 20.413,47.257 15.190 L 47.257 9.283 29.536 9.283 C 14.185 9.283,11.814 9.456,11.814 10.575 C 11.814 11.286,12.479 12.113,13.291 12.412 C 15.867 13.363,16.008 14.405,16.021 32.631 C 16.034 51.164,15.819 53.165,13.807 53.165 C 11.856 53.165,11.449 55.661,13.185 56.976 C 14.523 57.989,25.945 58.178,87.081 58.201 C 126.853 58.216,159.582 58.532,159.812 58.905 C 160.920 60.697,375.139 60.056,376.769 58.255 C 377.622 57.312,378.701 56.540,379.165 56.540 C 379.629 56.540,381.282 55.570,382.837 54.384 C 384.392 53.198,386.058 52.471,386.540 52.769 C 390.098 54.967,391.656 38.162,388.186 35.021 C 387.257 34.181,386.498 32.774,386.498 31.895 C 386.498 21.281,367.856 18.002,360.268 27.281 C 356.319 32.111,355.844 45.993,359.429 51.794 L 361.319 54.852 357.664 54.834 C 350.502 54.797,349.854 53.544,349.367 38.795 C 348.947 26.056,348.937 26.004,346.577 23.976 C 343.179 21.055,335.309 21.048,331.921 23.963 L 329.570 25.984 327.168 23.963 C 323.912 21.223,316.096 21.075,312.772 23.690 C 310.929 25.140,310.549 25.212,310.549 24.112 C 310.549 23.023,309.413 22.785,304.219 22.785 C 297.297 22.785,296.029 23.903,300.000 26.505 C 303.371 28.714,303.273 49.635,299.877 52.783 C 293.938 58.287,291.139 53.806,291.139 38.794 L 291.139 26.874 288.673 24.408 C 283.558 19.293,265.725 22.381,265.136 28.483 C 264.815 31.818,271.931 32.892,272.955 29.664 C 274.917 23.484,282.700 26.951,282.700 34.006 C 282.700 36.884,282.676 36.901,278.057 37.444 C 266.139 38.845,260.126 45.673,264.165 53.220 C 264.976 54.735,264.728 54.852,260.705 54.852 L 256.372 54.852 256.667 47.189 C 256.902 41.092,257.264 39.305,258.439 38.446 C 262.190 35.704,260.311 34.599,251.899 34.599 C 243.464 34.599,241.786 35.531,245.623 38.083 C 249.732 40.816,248.403 50.618,243.701 52.257 C 230.408 56.891,225.952 20.455,239.031 14.065 C 243.151 12.052,246.149 12.990,248.876 17.145 C 250.551 19.697,251.419 20.253,253.728 20.253 L 256.540 20.253 256.540 15.240 C 256.540 9.099,256.554 9.108,246.401 8.619 C 234.506 8.046,228.439 10.791,224.490 18.531 C 219.579 28.158,220.743 46.225,226.673 52.415 L 228.807 54.643 217.146 54.305 C 193.712 53.626,195.811 55.127,195.794 39.030 L 195.781 27.004 199.578 27.004 C 203.066 27.004,203.376 26.832,203.376 24.895 C 203.376 22.957,203.066 22.785,199.578 22.785 L 195.781 22.785 195.781 18.932 C 195.781 13.264,198.290 9.201,200.605 11.122 C 201.200 11.616,201.688 12.544,201.688 13.183 C 201.688 13.977,202.759 14.346,205.063 14.346 L 208.439 14.346 208.439 10.549 L 208.439 6.751 202.448 6.751 C 192.555 6.751,188.892 9.460,187.319 17.938 C 186.797 20.746,185.881 22.786,184.810 23.521 C 182.423 25.158,182.680 27.004,185.294 27.004 L 187.466 27.004 187.193 39.310 C 186.877 53.564,186.637 54.008,179.278 54.008 L 174.913 54.008 176.908 50.068 C 179.710 44.533,179.757 34.091,177.004 28.722 C 172.056 19.072,154.132 19.323,149.020 29.114 C 146.325 34.276,146.449 47.712,149.226 51.468 L 151.195 54.129 138.012 53.858 C 127.423 53.640,124.673 53.337,124.031 52.321 C 123.582 51.609,123.227 41.354,123.220 28.903 L 123.207 6.751 116.878 6.751 C 112.718 6.751,110.549 7.079,110.549 7.709 " stroke="none" fill="#000000" fill-rule="evenodd"></path></g></svg>