<svg id="svg" version="1.1" width="300" height="600" xmlns="http://www.w3.org/2000/svg" xmlns:xlink="http://www.w3.org/1999/xlink" ><g id="svgg"><path id="path0" d="M370.890 7.065 C 370.099 8.017,367.418 13.567,364.930 19.398 L 360.408 30.000 344.679 34.667 C 323.667 40.901,321.557 44.560,334.731 51.919 C 340.507 55.146,340.525 55.179,337.035 56.113 C 324.312 59.516,317.988 75.746,325.833 84.866 L 329.000 88.547 323.308 92.893 C 313.940 100.047,309.519 113.301,313.238 123.083 C 314.470 126.324,314.449 126.334,308.905 125.048 C 299.333 122.828,268.701 124.581,258.000 127.960 C 213.149 142.125,189.928 172.442,190.059 216.667 C 190.179 257.145,210.172 282.202,255.419 298.583 L 263.505 301.510 265.061 324.422 C 266.829 350.451,270.314 371.722,276.110 391.866 C 279.705 404.364,283.179 413.418,299.322 452.372 C 339.249 548.716,281.862 620.405,164.667 620.585 C 70.499 620.729,19.865 579.846,19.449 503.333 C 19.307 477.191,20.912 471.142,35.325 443.475 C 73.996 369.242,82.182 277.881,54.977 224.134 C 50.716 215.716,47.772 213.321,44.333 215.476 C 40.999 217.566,40.739 222.074,43.706 226.331 C 71.802 266.642,63.873 363.018,26.372 437.029 C 12.641 464.127,9.556 473.945,8.436 494.114 C 4.945 556.998,35.140 602.284,93.658 621.928 C 99.238 623.801,104.572 625.333,105.510 625.333 C 106.449 625.333,110.828 627.883,115.241 631.000 C 119.654 634.117,128.080 639.117,133.966 642.113 L 144.667 647.559 146.436 660.113 C 150.488 688.861,147.045 748.629,141.025 754.050 C 140.828 754.228,121.767 755.018,98.667 755.805 C 55.329 757.283,42.250 758.884,37.361 763.308 C 25.369 774.161,48.248 779.836,115.333 782.649 C 162.669 784.635,325.690 784.443,327.733 782.400 C 328.956 781.177,329.333 749.819,329.333 649.387 L 329.333 517.975 321.273 482.654 C 316.839 463.228,306.342 417.033,297.946 380.000 C 289.549 342.967,281.827 309.094,280.784 304.726 L 278.890 296.786 305.261 218.060 C 319.765 174.760,335.344 130.333,339.881 119.333 C 348.878 97.520,354.876 82.913,365.344 57.333 C 369.095 48.167,374.889 34.141,378.219 26.164 C 383.300 13.996,384.042 11.153,382.832 8.498 C 381.197 4.908,373.451 3.978,370.890 7.065 " stroke="none" fill="#000000" fill-rule="evenodd"></path></g></svg>