<svg id="svg" version="1.1" width="225" height="157" xmlns="http://www.w3.org/2000/svg" xmlns:xlink="http://www.w3.org/1999/xlink" ><g id="svgg"><path id="path0" d="M233.880 12.989 L 226.871 26.120 196.339 28.152 C 163.636 30.328,131.233 34.092,111.111 38.051 C 102.566 39.732,91.564 40.207,75.996 39.565 C 48.778 38.443,41.579 40.494,29.412 52.836 C 13.349 69.129,6.399 105.453,14.445 131.065 C 16.127 136.421,15.780 137.240,9.173 143.526 C -3.678 155.751,-2.590 172.955,11.532 180.858 C 13.016 181.689,15.375 186.735,16.773 192.073 L 19.316 201.778 14.067 205.934 C -1.734 218.447,0.189 238.138,18.105 247.278 C 22.011 249.271,29.735 255.502,35.270 261.124 C 49.789 275.873,58.636 278.216,99.556 278.152 C 118.661 278.121,133.411 277.272,137.778 275.950 C 142.840 274.418,166.150 273.783,218.667 273.749 C 374.380 273.645,387.319 271.370,385.342 244.444 C 384.679 235.416,385.172 232.959,388.550 228.444 C 390.746 225.511,393.495 219.511,394.660 215.111 C 395.824 210.711,397.502 205.722,398.389 204.024 C 402.858 195.462,398.154 184.189,387.329 177.517 C 379.273 172.553,379.133 171.850,384.842 165.065 C 387.260 162.191,390.140 156.476,391.242 152.364 C 392.344 148.253,393.966 143.051,394.845 140.805 C 399.740 128.306,393.938 117.072,378.567 109.283 C 373.439 106.684,369.566 103.353,368.849 100.926 C 364.071 84.738,341.769 32.332,337.740 27.823 C 331.515 20.855,320.887 20.039,275.309 23.030 C 238.020 25.477,240.062 26.108,247.343 14.395 C 253.329 4.766,253.039 2.826,245.333 0.944 C 241.284 -0.046,240.266 1.024,233.880 12.989 " stroke="none" fill="#000000" fill-rule="evenodd"></path></g></svg>